<svg width="24" height="25" viewBox="0 0 24 25" fill="none" xmlns="http://www.w3.org/2000/svg">
<g clip-path="url(#clip0_11_6)">
<path fill-rule="evenodd" clip-rule="evenodd" d="M12.8962 22.2532C17.9992 21.8 22 17.5136 22 12.2928C22 6.77 17.5228 2.29285 12 2.29285C6.47715 2.29285 2 6.77 2 12.2928C2 17.1407 5.44966 21.1828 10.0282 22.0985V14.8808H7.625V11.9917H10.0282V9.86027C10.0282 7.38712 11.4801 6.04285 13.6043 6.04285C14.6199 6.04285 15.4925 6.11712 15.75 6.15426V8.74623H14.2766C13.118 8.74623 12.8962 9.31068 12.8962 10.1499V11.9917H15.6499L15.2923 14.8808H12.8962V22.2532Z" fill="white"/>
</g>
<defs>
<clipPath id="clip0_11_6">
<rect width="24" height="24" fill="white" transform="translate(0 0.292725)"/>
</clipPath>
</defs>
</svg>
