<svg width="24" height="25" viewBox="0 0 24 25" fill="none" xmlns="http://www.w3.org/2000/svg">
<g clip-path="url(#clip0_11_9)">
<path d="M19.0002 2.29285H5C3 2.29285 2 3.29285 2 5.29285L2.00059 19.2928C2.00059 21.2928 3.00021 22.2928 5.00021 22.2928H19.0002C21.0002 22.2928 22.0002 21.2928 22.0002 19.2928V5.29285C22.0002 3.29285 21.0002 2.29285 19.0002 2.29285ZM8.66687 18.1262H6.16687V8.95952H8.66687V18.1262ZM7.41687 7.90285C6.61187 7.90285 5.95854 7.24452 5.95854 6.43285C5.95854 5.62118 6.61187 4.96285 7.41687 4.96285C8.22187 4.96285 8.87521 5.62118 8.87521 6.43285C8.87521 7.24452 8.22271 7.90285 7.41687 7.90285ZM18.6669 18.1262H16.1669V13.4562C16.1669 10.6495 12.8335 10.862 12.8335 13.4562V18.1262H10.3335V8.95952H12.8335V10.4303C13.9969 8.27535 18.6669 8.11619 18.6669 12.4937V18.1262Z" fill="white"/>
</g>
<defs>
<clipPath id="clip0_11_9">
<rect width="24" height="24" fill="white" transform="translate(0 0.292725)"/>
</clipPath>
</defs>
</svg>
