<svg width="24" height="25" viewBox="0 0 24 25" fill="none" xmlns="http://www.w3.org/2000/svg">
<g clip-path="url(#clip0_11_12)">
<path d="M8.66721 12.2927C8.66721 10.4518 10.1591 8.95912 12 8.95912C13.8409 8.95912 15.3336 10.4518 15.3336 12.2927C15.3336 14.1336 13.8409 15.6263 12 15.6263C10.1591 15.6263 8.66721 14.1336 8.66721 12.2927ZM6.86511 12.2927C6.86511 15.1287 9.16398 17.4276 12 17.4276C14.836 17.4276 17.1349 15.1287 17.1349 12.2927C17.1349 9.45669 14.836 7.15782 12 7.15782C9.16398 7.15782 6.86511 9.45669 6.86511 12.2927ZM16.1381 6.95427C16.1381 7.61663 16.6753 8.15459 17.3385 8.15459C18.0008 8.15459 18.5388 7.61663 18.5388 6.95427C18.5388 6.29191 18.0016 5.75476 17.3385 5.75476C16.6753 5.75476 16.1381 6.29191 16.1381 6.95427ZM7.95961 20.4324C6.98465 20.388 6.45477 20.2257 6.10259 20.0883C5.6357 19.9066 5.30291 19.6901 4.95234 19.3404C4.60259 18.9906 4.3853 18.6578 4.20436 18.1909C4.06704 17.8387 3.90469 17.3089 3.86026 16.3339C3.81179 15.2798 3.8021 14.9631 3.8021 12.2927C3.8021 9.62228 3.8126 9.30645 3.86026 8.25152C3.90469 7.27656 4.06785 6.74749 4.20436 6.3945C4.38611 5.92761 4.60259 5.59482 4.95234 5.24425C5.3021 4.8945 5.6349 4.67721 6.10259 4.49627C6.45477 4.35896 6.98465 4.1966 7.95961 4.15217C9.01373 4.10371 9.33037 4.09401 12 4.09401C14.6704 4.09401 14.9863 4.10451 16.0412 4.15217C17.0162 4.1966 17.5452 4.35976 17.8982 4.49627C18.3651 4.67721 18.6979 4.8945 19.0485 5.24425C19.3982 5.59401 19.6147 5.92761 19.7964 6.3945C19.9338 6.74668 20.0961 7.27656 20.1406 8.25152C20.189 9.30645 20.1987 9.62228 20.1987 12.2927C20.1987 14.9623 20.189 15.279 20.1406 16.3339C20.0961 17.3089 19.933 17.8387 19.7964 18.1909C19.6147 18.6578 19.3982 18.9906 19.0485 19.3404C18.6987 19.6901 18.3651 19.9066 17.8982 20.0883C17.546 20.2257 17.0162 20.388 16.0412 20.4324C14.9871 20.4809 14.6704 20.4906 12 20.4906C9.33037 20.4906 9.01373 20.4809 7.95961 20.4324ZM7.87722 2.3533C6.8126 2.40177 6.08562 2.57059 5.44992 2.81776C4.79241 3.07301 4.23506 3.4155 3.67851 3.97123C3.12278 4.52697 2.78029 5.08432 2.52504 5.74264C2.27787 6.37834 2.10905 7.10532 2.06058 8.16994C2.01131 9.23618 2 9.57705 2 12.2927C2 15.0084 2.01131 15.3492 2.06058 16.4155C2.10905 17.4801 2.27787 18.2071 2.52504 18.8428C2.78029 19.5003 3.12197 20.0585 3.67851 20.6142C4.23425 21.1699 4.7916 21.5116 5.44992 21.7677C6.08643 22.0148 6.8126 22.1837 7.87722 22.2321C8.94427 22.2806 9.28433 22.2927 12 22.2927C14.7165 22.2927 15.0565 22.2814 16.1228 22.2321C17.1874 22.1837 17.9144 22.0148 18.5501 21.7677C19.2076 21.5116 19.7649 21.1699 20.3215 20.6142C20.8772 20.0585 21.2189 19.5003 21.475 18.8428C21.7221 18.2071 21.8918 17.4801 21.9394 16.4155C21.9879 15.3484 21.9992 15.0084 21.9992 12.2927C21.9992 9.57705 21.9879 9.23618 21.9394 8.16994C21.891 7.10532 21.7221 6.37834 21.475 5.74264C21.2189 5.08513 20.8772 4.52778 20.3215 3.97123C19.7658 3.4155 19.2076 3.07301 18.5509 2.81776C17.9144 2.57059 17.1874 2.40096 16.1236 2.3533C15.0574 2.30484 14.7165 2.29272 12.0008 2.29272C9.28433 2.29272 8.94427 2.30403 7.87722 2.3533Z" fill="white"/>
</g>
<defs>
<clipPath id="clip0_11_12">
<rect width="24" height="24" fill="white" transform="translate(0 0.292725)"/>
</clipPath>
</defs>
</svg>
