<svg width="24" height="25" viewBox="0 0 24 25" fill="none" xmlns="http://www.w3.org/2000/svg">
<g clip-path="url(#clip0_11_3)">
<path d="M22 6.1869C21.2642 6.50847 20.4733 6.72504 19.6433 6.82266C20.4908 6.32307 21.1417 5.53144 21.4475 4.58804C20.655 5.05072 19.7767 5.38706 18.8417 5.56836C18.0942 4.78329 17.0267 4.29272 15.8467 4.29272C13.1975 4.29272 11.2508 6.72586 11.8492 9.2517C8.44 9.08353 5.41667 7.47566 3.3925 5.03185C2.3175 6.84727 2.835 9.22217 4.66167 10.4248C3.99 10.4034 3.35667 10.2222 2.80417 9.91947C2.75917 11.7906 4.12167 13.5413 6.095 13.9309C5.5175 14.0852 4.885 14.1212 4.24167 13.9998C4.76333 15.6044 6.27833 16.7718 8.075 16.8046C6.35 18.136 4.17667 18.7308 2 18.4781C3.81583 19.6241 5.97333 20.2927 8.29 20.2927C15.9083 20.2927 20.2125 13.9588 19.9525 8.27795C20.7542 7.70781 21.45 6.99658 22 6.1869Z" fill="white"/>
</g>
<defs>
<clipPath id="clip0_11_3">
<rect width="24" height="24" fill="white" transform="translate(0 0.292725)"/>
</clipPath>
</defs>
</svg>
