<svg width="24" height="25" viewBox="0 0 24 25" fill="none" xmlns="http://www.w3.org/2000/svg">
<g clip-path="url(#clip0_11_15)">
<path d="M22.9991 10.0027C23.0485 8.57137 22.7355 7.15073 22.0891 5.87271C21.6505 5.34831 21.0418 4.99442 20.3691 4.87271C17.5866 4.62024 14.7926 4.51676 11.9991 4.56271C9.2157 4.51467 6.43176 4.61481 3.65905 4.86271C3.11087 4.96243 2.60357 5.21956 2.19905 5.60271C1.29905 6.43271 1.19905 7.85271 1.09905 9.05271C0.953962 11.2102 0.953962 13.3751 1.09905 15.5327C1.12798 16.2081 1.22854 16.8785 1.39905 17.5327C1.51963 18.0377 1.76357 18.505 2.10905 18.8927C2.51632 19.2961 3.03543 19.5679 3.59905 19.6727C5.75497 19.9388 7.92727 20.0491 10.0991 20.0027C13.5991 20.0527 16.669 20.0027 20.299 19.7227C20.8765 19.6243 21.4102 19.3522 21.8291 18.9427C22.109 18.6626 22.3181 18.3198 22.4391 17.9427C22.7967 16.8453 22.9723 15.6968 22.959 14.5427C22.9991 13.9827 22.9991 10.6027 22.9991 10.0027ZM9.73905 15.1427V8.95271L15.659 12.0627C13.9991 12.9827 11.809 14.0227 9.73905 15.1427Z" fill="white"/>
</g>
<defs>
<clipPath id="clip0_11_15">
<rect width="24" height="24" fill="white" transform="translate(0 0.292725)"/>
</clipPath>
</defs>
</svg>
