<svg width="146" height="47" viewBox="0 0 146 47" fill="none" xmlns="http://www.w3.org/2000/svg">
<path d="M19.0291 0C7.83137 0 0.216919 6.97458 0.216919 16.7646C0.216919 25.9787 6.99953 32.4414 16.1497 32.4414C17.4934 32.4414 18.6452 32.2494 19.7329 31.9295L7.38345 45.4307H19.541L30.4187 32.6333C33.1702 29.37 37.9052 23.8671 37.9052 16.4446C37.9052 6.84661 30.2268 0 19.0291 0ZM19.0931 24.635C14.486 24.635 11.2867 21.4996 11.2867 16.8926C11.2867 12.2855 14.55 9.15013 19.0931 9.15013C23.7641 9.15013 26.8995 12.3495 26.8995 16.8926C26.8995 21.4356 23.7641 24.635 19.0931 24.635ZM61.7703 0C50.5726 0 42.9582 6.97458 42.9582 16.7646C42.9582 25.9787 49.7408 32.4414 58.8909 32.4414C60.2347 32.4414 61.3864 32.2494 62.4742 31.9295L50.1247 45.4307H62.2822L73.16 32.6333C75.9114 29.37 80.6465 23.8671 80.6465 16.4446C80.6465 6.84661 72.968 0 61.7703 0ZM61.8343 24.635C57.2273 24.635 54.0279 21.4996 54.0279 16.8926C54.0279 12.2855 57.2913 9.15013 61.8343 9.15013C66.5054 9.15013 69.6407 12.3495 69.6407 16.8926C69.6407 21.4356 66.5054 24.635 61.8343 24.635ZM99.0207 24.1231C106.187 24.1231 111.562 18.9401 111.562 12.0935C111.562 5.18294 106.187 0 99.0207 0C91.8542 0 86.5433 5.18294 86.5433 12.0935C86.5433 18.9401 91.8542 24.1231 99.0207 24.1231ZM94.5416 45.4307H104.908L137.797 0.639869H127.367L94.5416 45.4307ZM99.0207 16.4446C96.5892 16.4446 94.8616 14.653 94.8616 12.0935C94.8616 9.47007 96.5892 7.67843 99.0207 7.67843C101.516 7.67843 103.244 9.47007 103.244 12.0935C103.244 14.653 101.516 16.4446 99.0207 16.4446ZM133.254 46.0706C140.42 46.0706 145.795 40.9516 145.795 34.0411C145.795 27.1944 140.42 22.0115 133.254 22.0115C126.151 22.0115 120.776 27.1944 120.776 34.0411C120.776 40.9516 126.151 46.0706 133.254 46.0706ZM133.254 38.4561C130.822 38.4561 129.095 36.6005 129.095 34.0411C129.095 31.4816 130.822 29.626 133.254 29.626C135.749 29.626 137.477 31.4816 137.477 34.0411C137.477 36.6005 135.749 38.4561 133.254 38.4561Z" fill="#050038"/>
</svg>
