<svg width="360" height="55" viewBox="0 0 360 55" fill="none" xmlns="http://www.w3.org/2000/svg">
<path d="M190.414 24.1083V15.982H180.24L180.368 6H171.922L171.73 15.982H162.068L162.196 6H153.686L153.558 15.982H143V24.1083H153.43L153.302 32.7465H143V40.8729H153.174L153.046 50.7909H161.556L161.684 40.8729H171.41L171.282 50.7909H179.729L179.856 40.8729H190.414V32.7465H179.984L180.112 24.1083H190.414ZM171.538 32.7465H161.812L161.94 24.1083H171.666L171.538 32.7465ZM207.023 50.7909H217.197V6H207.279L207.151 7.59968C206.895 11.3109 205.167 13.0386 201.392 13.2305L196.081 13.4865V21.6768H207.023V50.7909Z" fill="#050038"/>
</svg>
