<svg width="113" height="47" viewBox="0 0 113 47" fill="none" xmlns="http://www.w3.org/2000/svg">
<path d="M0 45.4307H10.6218V0.639869H0V45.4307ZM39.338 46.0706C51.5595 46.0706 59.0459 39.9278 59.0459 30.5858C59.0459 22.9073 54.1829 18.4922 45.0328 17.3405L36.7145 16.2527C34.4749 15.9328 31.7235 15.1649 31.7235 12.3495C31.7235 9.72602 34.027 8.06236 37.3544 8.06236C41.0656 8.06236 43.3691 9.72601 44.137 13.0533L55.4627 12.9894C54.8228 4.99098 47.9762 0 37.7383 0C27.3084 0 21.0377 5.24693 21.0377 13.5012C21.0377 20.3478 25.2608 24.315 33.6431 25.4028L42.7933 26.5546C45.2887 26.9385 47.9122 27.8343 47.9122 31.2256C47.9122 35.0009 44.7129 37.2404 39.5299 37.2404C33.1312 37.2404 29.292 33.8491 28.9081 27.7703H16.8785C17.3265 38.2642 25.5168 46.0706 39.338 46.0706ZM87.6411 46.0706C101.59 46.0706 112.02 36.2166 112.02 23.0353C112.02 9.91798 101.59 0 87.6411 0C73.6919 0 63.2621 9.91798 63.2621 23.0353C63.2621 36.2166 73.6919 46.0706 87.6411 46.0706ZM87.6411 36.5365C79.8987 36.5365 74.4598 30.9697 74.4598 23.0353C74.4598 15.1649 79.8987 9.59805 87.6411 9.59805C95.3835 9.59805 100.822 15.1649 100.822 23.0353C100.822 30.9697 95.3835 36.5365 87.6411 36.5365Z" fill="#050038"/>
</svg>
