<svg width="360" height="55" viewBox="0 0 360 55" fill="none" xmlns="http://www.w3.org/2000/svg">
<path d="M104.942 50.4307H115.116V5.63987H105.198L105.07 7.23955C104.814 10.9508 103.086 12.6784 99.3109 12.8704L94 13.1263V21.3167H104.942V50.4307ZM146.498 51.0706C160.447 51.0706 170.877 41.2166 170.877 28.0353C170.877 14.918 160.447 5 146.498 5C132.549 5 122.119 14.918 122.119 28.0353C122.119 41.2166 132.549 51.0706 146.498 51.0706ZM146.498 41.5365C138.756 41.5365 133.317 35.9697 133.317 28.0353C133.317 20.1649 138.756 14.598 146.498 14.598C154.241 14.598 159.68 20.1649 159.68 28.0353C159.68 35.9697 154.241 41.5365 146.498 41.5365ZM200.55 51.0706C214.499 51.0706 224.929 41.2166 224.929 28.0353C224.929 14.918 214.499 5 200.55 5C186.601 5 176.171 14.918 176.171 28.0353C176.171 41.2166 186.601 51.0706 200.55 51.0706ZM200.55 41.5365C192.808 41.5365 187.369 35.9697 187.369 28.0353C187.369 20.1649 192.808 14.598 200.55 14.598C208.293 14.598 213.732 20.1649 213.732 28.0353C213.732 35.9697 208.293 41.5365 200.55 41.5365ZM265.742 24.2601H253.456V12.1026H244.69V24.2601H232.469V33.1543H244.69V45.3118H253.456V33.1543H265.742V24.2601Z" fill="#050038"/>
</svg>
