<svg width="360" height="55" viewBox="0 0 360 55" fill="none" xmlns="http://www.w3.org/2000/svg">
<path d="M66.9418 46.431H77.1157V1.63987H67.1977L67.0698 3.23954C66.8138 6.95099 65.0862 8.67864 61.3109 8.8706L56 9.12655V17.3169H66.9418V46.431ZM93.8213 34.2095C89.4062 34.2095 86.3988 36.9609 86.3988 40.6721C86.3988 43.9355 88.8943 46.5589 92.6056 46.5589C94.0773 46.5589 95.421 46.111 96.3168 45.3432C95.485 48.7985 92.2856 50.3982 87.1667 49.7583V54.1094C96.3168 55.2612 101.756 50.9101 101.756 43.1676C101.756 37.4088 98.5564 34.2095 93.8213 34.2095ZM130.557 47.0709C144.506 47.0709 154.936 37.2169 154.936 24.0355C154.936 10.9182 144.506 1 130.557 1C116.608 1 106.178 10.9182 106.178 24.0355C106.178 37.2169 116.608 47.0709 130.557 47.0709ZM130.557 37.5368C122.814 37.5368 117.376 31.9699 117.376 24.0355C117.376 16.1651 122.814 10.5982 130.557 10.5982C138.299 10.5982 143.738 16.1651 143.738 24.0355C143.738 31.9699 138.299 37.5368 130.557 37.5368ZM184.608 47.0709C198.557 47.0709 208.987 37.2169 208.987 24.0355C208.987 10.9182 198.557 1 184.608 1C170.659 1 160.229 10.9182 160.229 24.0355C160.229 37.2169 170.659 47.0709 184.608 47.0709ZM184.608 37.5368C176.865 37.5368 171.427 31.9699 171.427 24.0355C171.427 16.1651 176.865 10.5982 184.608 10.5982C192.35 10.5982 197.789 16.1651 197.789 24.0355C197.789 31.9699 192.35 37.5368 184.608 37.5368ZM238.66 47.0709C252.609 47.0709 263.039 37.2169 263.039 24.0355C263.039 10.9182 252.609 1 238.66 1C224.711 1 214.281 10.9182 214.281 24.0355C214.281 37.2169 224.711 47.0709 238.66 47.0709ZM238.66 37.5368C230.917 37.5368 225.479 31.9699 225.479 24.0355C225.479 16.1651 230.917 10.5982 238.66 10.5982C246.402 10.5982 251.841 16.1651 251.841 24.0355C251.841 31.9699 246.402 37.5368 238.66 37.5368ZM303.852 20.2603H291.566V8.10276H282.8V20.2603H270.578V29.1545H282.8V41.312H291.566V29.1545H303.852V20.2603Z" fill="#050038"/>
</svg>
