<svg width="182" height="46" viewBox="0 0 182 46" fill="none" xmlns="http://www.w3.org/2000/svg">
<path d="M41.9822 17.1485H30.0167V3.19936H19.5868V17.1485H11.0765V0H0.646912V25.3389H19.3948V44.7909H30.0167V25.3389H41.9822V17.1485ZM66.8082 13.6932C62.777 13.6932 59.4497 14.845 56.8902 16.9566L57.2741 8.95819H79.9255V0H48.8278L48.124 25.0189H58.3619C59.8336 23.1633 61.9452 22.2675 64.5047 22.2675C68.9198 22.2675 71.9911 24.9549 71.9911 29.3061C71.9911 33.5292 69.0477 36.4086 64.5047 36.4086C59.9616 36.4086 56.8902 33.5932 56.6982 28.8581H45.7565C45.6285 38.8401 53.2429 45.4308 64.3127 45.4308C75.4464 45.4308 82.9329 38.7761 82.9329 29.0501C82.9329 19.772 76.2143 13.6932 66.8082 13.6932ZM90.7793 44.7909H100.953V10.7498L101.337 10.6858L110.679 40.9517H119.957L129.363 10.6858L129.747 10.7498V44.7909H139.921V0H123.797L115.478 29.9459H115.222L106.904 0H90.7793V44.7909ZM182 18.6202H169.714V6.46269H160.948V18.6202H148.727V27.5144H160.948V39.672H169.714V27.5144H182V18.6202Z" fill="#050038"/>
</svg>
