<svg width="172" height="47" viewBox="0 0 172 47" fill="none" xmlns="http://www.w3.org/2000/svg">
<path d="M10.9416 45.4307H21.1155V0.639869H11.1975L11.0696 2.23955C10.8136 5.95079 9.08596 7.67843 5.31073 7.87039L-0.000183105 8.12635V16.3167H10.9416V45.4307ZM52.4981 46.0706C66.4472 46.0706 76.8771 36.2166 76.8771 23.0353C76.8771 9.91798 66.4472 0 52.4981 0C38.5489 0 28.1191 9.91798 28.1191 23.0353C28.1191 36.2166 38.5489 46.0706 52.4981 46.0706ZM52.4981 36.5365C44.7557 36.5365 39.3168 30.9697 39.3168 23.0353C39.3168 15.1649 44.7557 9.59805 52.4981 9.59805C60.2405 9.59805 65.6794 15.1649 65.6794 23.0353C65.6794 30.9697 60.2405 36.5365 52.4981 36.5365ZM106.55 46.0706C120.499 46.0706 130.929 36.2166 130.929 23.0353C130.929 9.91798 120.499 0 106.55 0C92.6009 0 82.171 9.91798 82.171 23.0353C82.171 36.2166 92.6009 46.0706 106.55 46.0706ZM106.55 36.5365C98.8076 36.5365 93.3687 30.9697 93.3687 23.0353C93.3687 15.1649 98.8076 9.59805 106.55 9.59805C114.292 9.59805 119.731 15.1649 119.731 23.0353C119.731 30.9697 114.292 36.5365 106.55 36.5365ZM171.742 19.2601H159.456V7.10255H150.69V19.2601H138.469V28.1543H150.69V40.3118H159.456V28.1543H171.742V19.2601Z" fill="#050038"/>
</svg>
