<svg width="360" height="55" viewBox="0 0 360 55" fill="none" xmlns="http://www.w3.org/2000/svg">
<path d="M130.335 22.1485H118.37V8.19936H107.94V22.1485H99.4296V5H89V30.3389H107.748V49.7909H118.37V30.3389H130.335V22.1485ZM155.161 18.6932C151.13 18.6932 147.803 19.845 145.243 21.9566L145.627 13.9582H168.279V5H137.181L136.477 30.0189H146.715C148.187 28.1633 150.298 27.2675 152.858 27.2675C157.273 27.2675 160.344 29.9549 160.344 34.3061C160.344 38.5292 157.401 41.4086 152.858 41.4086C148.315 41.4086 145.243 38.5932 145.051 33.8582H134.11C133.982 43.8401 141.596 50.4308 152.666 50.4308C163.8 50.4308 171.286 43.7761 171.286 34.0501C171.286 24.772 164.567 18.6932 155.161 18.6932ZM179.132 49.7909H189.306V15.7498L189.69 15.6858L199.032 45.9517H208.31L217.717 15.6858L218.101 15.7498V49.7909H228.274V5H212.15L203.831 34.9459H203.575L195.257 5H179.132V49.7909ZM270.353 23.6202H258.067V11.4627H249.301V23.6202H237.08V32.5144H249.301V44.672H258.067V32.5144H270.353V23.6202Z" fill="#050038"/>
</svg>
