<svg width="249" height="54" viewBox="0 0 249 54" fill="none" xmlns="http://www.w3.org/2000/svg">
<path d="M11.737 45.431H21.9109V0.63987H11.993L11.865 2.23954C11.609 5.95099 9.88138 7.67864 6.10615 7.8706L0.795227 8.12655V16.3169H11.737V45.431ZM38.6165 33.2095C34.2014 33.2095 31.1941 35.9609 31.1941 39.6721C31.1941 42.9355 33.6895 45.5589 37.4008 45.5589C38.8725 45.5589 40.2162 45.111 41.112 44.3432C40.2802 47.7985 37.0809 49.3982 31.9619 48.7583V53.1094C41.112 54.2612 46.5509 49.9101 46.5509 42.1676C46.5509 36.4088 43.3516 33.2095 38.6165 33.2095ZM75.3521 46.0709C89.3013 46.0709 99.7311 36.2168 99.7311 23.0355C99.7311 9.91819 89.3013 0 75.3521 0C61.4029 0 50.973 9.91819 50.973 23.0355C50.973 36.2168 61.4029 46.0709 75.3521 46.0709ZM75.3521 36.5368C67.6097 36.5368 62.1708 30.9699 62.1708 23.0355C62.1708 15.1651 67.6097 9.59825 75.3521 9.59825C83.0945 9.59825 88.5334 15.1651 88.5334 23.0355C88.5334 30.9699 83.0945 36.5368 75.3521 36.5368ZM129.403 46.0709C143.352 46.0709 153.782 36.2168 153.782 23.0355C153.782 9.91819 143.352 0 129.403 0C115.454 0 105.024 9.91819 105.024 23.0355C105.024 36.2168 115.454 46.0709 129.403 46.0709ZM129.403 36.5368C121.661 36.5368 116.222 30.9699 116.222 23.0355C116.222 15.1651 121.661 9.59825 129.403 9.59825C137.146 9.59825 142.584 15.1651 142.584 23.0355C142.584 30.9699 137.146 36.5368 129.403 36.5368ZM183.455 46.0709C197.404 46.0709 207.834 36.2168 207.834 23.0355C207.834 9.91819 197.404 0 183.455 0C169.506 0 159.076 9.91819 159.076 23.0355C159.076 36.2168 169.506 46.0709 183.455 46.0709ZM183.455 36.5368C175.713 36.5368 170.274 30.9699 170.274 23.0355C170.274 15.1651 175.713 9.59825 183.455 9.59825C191.198 9.59825 196.636 15.1651 196.636 23.0355C196.636 30.9699 191.198 36.5368 183.455 36.5368ZM248.647 19.2603H236.361V7.10276H227.595V19.2603H215.374V28.1545H227.595V40.312H236.361V28.1545H248.647V19.2603Z" fill="#050038"/>
</svg>
