<svg width="360" height="55" viewBox="0 0 360 55" fill="none" xmlns="http://www.w3.org/2000/svg">
<path d="M125.812 5C114.614 5 107 11.9746 107 21.7646C107 30.9787 113.783 37.4414 122.933 37.4414C124.276 37.4414 125.428 37.2494 126.516 36.9295L114.167 50.4307H126.324L137.202 37.6333C139.953 34.37 144.688 28.8671 144.688 21.4446C144.688 11.8466 137.01 5 125.812 5ZM125.876 29.635C121.269 29.635 118.07 26.4996 118.07 21.8926C118.07 17.2855 121.333 14.1501 125.876 14.1501C130.547 14.1501 133.683 17.3495 133.683 21.8926C133.683 26.4356 130.547 29.635 125.876 29.635ZM168.553 5C157.356 5 149.741 11.9746 149.741 21.7646C149.741 30.9787 156.524 37.4414 165.674 37.4414C167.018 37.4414 168.17 37.2494 169.257 36.9295L156.908 50.4307H169.065L179.943 37.6333C182.695 34.37 187.43 28.8671 187.43 21.4446C187.43 11.8466 179.751 5 168.553 5ZM168.617 29.635C164.01 29.635 160.811 26.4996 160.811 21.8926C160.811 17.2855 164.074 14.1501 168.617 14.1501C173.288 14.1501 176.424 17.3495 176.424 21.8926C176.424 26.4356 173.288 29.635 168.617 29.635ZM205.804 29.1231C212.97 29.1231 218.345 23.9401 218.345 17.0935C218.345 10.1829 212.97 5 205.804 5C198.637 5 193.326 10.1829 193.326 17.0935C193.326 23.9401 198.637 29.1231 205.804 29.1231ZM201.325 50.4307H211.691L244.58 5.63987H234.15L201.325 50.4307ZM205.804 21.4446C203.372 21.4446 201.645 19.653 201.645 17.0935C201.645 14.4701 203.372 12.6784 205.804 12.6784C208.299 12.6784 210.027 14.4701 210.027 17.0935C210.027 19.653 208.299 21.4446 205.804 21.4446ZM240.037 51.0706C247.203 51.0706 252.578 45.9516 252.578 39.041C252.578 32.1945 247.203 27.0115 240.037 27.0115C232.934 27.0115 227.559 32.1945 227.559 39.041C227.559 45.9516 232.934 51.0706 240.037 51.0706ZM240.037 43.4562C237.605 43.4562 235.878 41.6005 235.878 39.041C235.878 36.4816 237.605 34.626 240.037 34.626C242.532 34.626 244.26 36.4816 244.26 39.041C244.26 41.6005 242.532 43.4562 240.037 43.4562Z" fill="#050038"/>
</svg>
