<svg width="75" height="45" viewBox="0 0 75 45" fill="none" xmlns="http://www.w3.org/2000/svg">
<path d="M47.4345 18.1083V9.98196H37.2605L37.3885 0H28.9422L28.7503 9.98196H19.0883L19.2162 0H10.706L10.578 9.98196H0.0201416V18.1083H10.45L10.322 26.7465H0.0201416V34.8729H10.1941L10.0661 44.7909H18.5764L18.7043 34.8729H28.4303L28.3024 44.7909H36.7486L36.8766 34.8729H47.4345V26.7465H37.0046L37.1326 18.1083H47.4345ZM28.5583 26.7465H18.8323L18.9603 18.1083H28.6863L28.5583 26.7465ZM64.0431 44.7909H74.217V0H64.299L64.171 1.59968C63.9151 5.31092 62.1874 7.03856 58.4122 7.23053L53.1013 7.48648V15.6768H64.0431V44.7909Z" fill="#050038"/>
</svg>
