<svg width="360" height="55" viewBox="0 0 360 55" fill="none" xmlns="http://www.w3.org/2000/svg">
<path d="M124 50.4307H134.622V5.63987H124V50.4307ZM163.338 51.0706C175.559 51.0706 183.046 44.9278 183.046 35.5858C183.046 27.9073 178.183 23.4922 169.033 22.3405L160.714 21.2527C158.475 20.9327 155.724 20.1649 155.724 17.3495C155.724 14.726 158.027 13.0624 161.354 13.0624C165.066 13.0624 167.369 14.726 168.137 18.0533L179.463 17.9894C178.823 9.99098 171.976 5 161.738 5C151.308 5 145.038 10.2469 145.038 18.5012C145.038 25.3478 149.261 29.315 157.643 30.4028L166.793 31.5546C169.289 31.9385 171.912 32.8343 171.912 36.2256C171.912 40.0009 168.713 42.2404 163.53 42.2404C157.131 42.2404 153.292 38.8491 152.908 32.7703H140.879C141.326 43.2642 149.517 51.0706 163.338 51.0706ZM211.641 51.0706C225.59 51.0706 236.02 41.2166 236.02 28.0353C236.02 14.918 225.59 5 211.641 5C197.692 5 187.262 14.918 187.262 28.0353C187.262 41.2166 197.692 51.0706 211.641 51.0706ZM211.641 41.5365C203.899 41.5365 198.46 35.9697 198.46 28.0353C198.46 20.1649 203.899 14.598 211.641 14.598C219.384 14.598 224.822 20.1649 224.822 28.0353C224.822 35.9697 219.384 41.5365 211.641 41.5365Z" fill="#050038"/>
</svg>
