<svg width="31" height="30" viewBox="0 0 31 30" fill="none" xmlns="http://www.w3.org/2000/svg">
<path fill-rule="evenodd" clip-rule="evenodd" d="M27.6562 15C27.6562 21.6275 22.2837 27 15.6562 27C9.02884 27 3.65625 21.6275 3.65625 15C3.65625 8.37259 9.02884 3 15.6562 3C22.2837 3 27.6562 8.37259 27.6562 15ZM9.78002 17C9.69833 16.3448 9.65625 15.6773 9.65625 15C9.65625 14.3227 9.69834 13.6552 9.78005 13H5.85629C5.72512 13.6462 5.65625 14.3151 5.65625 15C5.65625 15.6849 5.72512 16.3537 5.85629 17H9.78002ZM10.1603 19H6.48834C7.66585 21.6951 9.99688 23.7707 12.8573 24.6031C11.6178 22.9536 10.6897 21.0568 10.1603 19ZM12.236 19H19.0765C18.4185 21.2109 17.2291 23.1929 15.6562 24.798C14.0835 23.1929 12.894 21.2109 12.236 19ZM19.5145 17H11.798C11.7046 16.3468 11.6562 15.679 11.6562 15C11.6562 14.321 11.7046 13.6532 11.798 13H19.5145C19.6079 13.6532 19.6562 14.321 19.6562 15C19.6562 15.679 19.6079 16.3468 19.5145 17ZM21.5325 17C21.6141 16.3448 21.6562 15.6773 21.6562 15C21.6562 14.3227 21.6141 13.6552 21.5325 13H25.4563C25.5875 13.6462 25.6562 14.3151 25.6562 15C25.6562 15.6849 25.5875 16.3537 25.4563 17H21.5325ZM21.1523 19H24.8241C23.6467 21.6951 21.3156 23.7707 18.4552 24.6031C19.6947 22.9536 20.6228 21.0568 21.1523 19ZM15.6562 5.20204C14.0835 6.80704 12.894 8.78908 12.236 11H19.0765C18.4185 8.78908 17.2291 6.80704 15.6562 5.20204ZM18.4552 5.39697C19.6947 7.04639 20.6228 8.94316 21.1521 11H24.8241C23.6467 8.30497 21.3156 6.22927 18.4552 5.39697ZM6.48834 11H10.1603C10.6897 8.94316 11.6178 7.04639 12.8574 5.39697C9.99689 6.22927 7.66585 8.30497 6.48834 11Z" fill="#050038"/>
</svg>
