<svg width="30" height="30" viewBox="0 0 30 30" fill="none" xmlns="http://www.w3.org/2000/svg">
<g clip-path="url(#clip0_969_699)">
<path d="M0.9375 7.5H29.0625C29.3111 7.5 29.5496 7.40123 29.7254 7.22541C29.9012 7.0496 30 6.81114 30 6.5625C30 6.31386 29.9012 6.0754 29.7254 5.89959C29.5496 5.72377 29.3111 5.625 29.0625 5.625H0.9375C0.68886 5.625 0.450403 5.72377 0.274587 5.89959C0.0987721 6.0754 0 6.31386 0 6.5625C0 6.81114 0.0987721 7.0496 0.274587 7.22541C0.450403 7.40123 0.68886 7.5 0.9375 7.5Z" fill="#050038"/>
<path d="M29.0625 14.0625H0.9375C0.68886 14.0625 0.450403 14.1613 0.274587 14.3371C0.0987721 14.5129 0 14.7514 0 15C0 15.2486 0.0987721 15.4871 0.274587 15.6629C0.450403 15.8387 0.68886 15.9375 0.9375 15.9375H29.0625C29.3111 15.9375 29.5496 15.8387 29.7254 15.6629C29.9012 15.4871 30 15.2486 30 15C30 14.7514 29.9012 14.5129 29.7254 14.3371C29.5496 14.1613 29.3111 14.0625 29.0625 14.0625Z" fill="#050038"/>
<path d="M29.0625 22.5H0.9375C0.68886 22.5 0.450403 22.5988 0.274587 22.7746C0.0987721 22.9504 0 23.1889 0 23.4375C0 23.6861 0.0987721 23.9246 0.274587 24.1004C0.450403 24.2762 0.68886 24.375 0.9375 24.375H29.0625C29.3111 24.375 29.5496 24.2762 29.7254 24.1004C29.9012 23.9246 30 23.6861 30 23.4375C30 23.1889 29.9012 22.9504 29.7254 22.7746C29.5496 22.5988 29.3111 22.5 29.0625 22.5Z" fill="#050038"/>
</g>
<defs>
<clipPath id="clip0_969_699">
<rect width="30" height="30" fill="white"/>
</clipPath>
</defs>
</svg>
