<svg width="17" height="17" viewBox="0 0 17 17" fill="none" xmlns="http://www.w3.org/2000/svg">
<g clip-path="url(#clip0_48_5)">
<path d="M4.17386 14.766L4.1739 14.7659L4.16777 14.7614C4.12222 14.7276 4.10344 14.6961 4.09461 14.6436C4.08292 14.5741 4.08766 14.4448 4.16185 14.2323H4.16186L4.16281 14.2295L5.66857 9.83348C5.74055 9.62335 5.66527 9.39093 5.48377 9.26289L1.63652 6.54892L1.63653 6.54891L1.63399 6.54714C1.44355 6.41456 1.35582 6.31022 1.32059 6.24395C1.29561 6.19696 1.29546 6.17143 1.30921 6.13176L1.3102 6.12887C1.32307 6.09097 1.34221 6.06321 1.39931 6.03475C1.47117 5.99894 1.60701 5.96322 1.83905 5.96618L1.84242 5.9662L6.56142 5.99449C6.77919 5.99579 6.97276 5.85599 7.03999 5.64885L8.47329 1.23288C8.54645 1.01203 8.62192 0.898393 8.67639 0.844593C8.71732 0.804174 8.74862 0.792725 8.79785 0.792725C8.85328 0.792725 8.88632 0.806068 8.9268 0.845779C8.98117 0.899109 9.05642 1.01197 9.12962 1.23293C9.12975 1.23334 9.12989 1.23376 9.13003 1.23418L10.5629 5.64885C10.6301 5.85599 10.8237 5.99579 11.0415 5.99449L15.7605 5.96621L15.7639 5.96617C15.9959 5.96322 16.1318 5.99894 16.2036 6.03476C16.2593 6.0625 16.2789 6.08958 16.2917 6.12603C16.3053 6.16911 16.3034 6.19879 16.2786 6.24586C16.2439 6.3119 16.1578 6.41566 15.969 6.54712L15.9689 6.54711L15.9664 6.54892L12.1192 9.26289C11.9377 9.39093 11.8624 9.62335 11.9344 9.83348L13.4401 14.2295L13.4411 14.2323C13.5153 14.4448 13.52 14.5741 13.5083 14.6436C13.4995 14.6961 13.4807 14.7276 13.4352 14.7614L13.4337 14.7625C13.3972 14.7898 13.3689 14.7987 13.3109 14.7891C13.2314 14.7758 13.1003 14.7241 12.9073 14.5868C12.907 14.5865 12.9066 14.5863 12.9063 14.5861L9.09001 11.8383C8.91537 11.7125 8.67986 11.7127 8.50533 11.8386L4.69663 14.5861C4.69621 14.5864 4.69579 14.5867 4.69538 14.5869C4.50376 14.7232 4.37082 14.7755 4.28971 14.789C4.22876 14.7991 4.20332 14.7885 4.17386 14.766Z" stroke="#FF9D48" stroke-linejoin="round"/>
<mask id="mask0_48_5" style="mask-type:alpha" maskUnits="userSpaceOnUse" x="0" y="0" width="17" height="16">
<path d="M4.17386 14.766L4.1739 14.7659L4.16777 14.7614C4.12222 14.7276 4.10344 14.6961 4.09461 14.6436C4.08292 14.5741 4.08766 14.4448 4.16185 14.2323H4.16186L4.16281 14.2295L5.66857 9.83348C5.74055 9.62335 5.66527 9.39093 5.48377 9.26289L1.63652 6.54892L1.63653 6.54891L1.63399 6.54714C1.44355 6.41456 1.35582 6.31022 1.32059 6.24395C1.29561 6.19696 1.29546 6.17143 1.30921 6.13176L1.3102 6.12887C1.32307 6.09097 1.34221 6.06321 1.39931 6.03475C1.47117 5.99894 1.60701 5.96322 1.83905 5.96618L1.84242 5.9662L6.56142 5.99449C6.77919 5.99579 6.97276 5.85599 7.03999 5.64885L8.47327 1.23294C8.54644 1.01205 8.62191 0.898397 8.67639 0.844593C8.71732 0.804174 8.74862 0.792725 8.79785 0.792725C8.85328 0.792725 8.88632 0.806068 8.9268 0.845779C8.98117 0.89911 9.05642 1.01197 9.12962 1.23294C9.12976 1.23335 9.12989 1.23377 9.13003 1.23418L10.5629 5.64885C10.6301 5.85599 10.8237 5.99579 11.0415 5.99449L15.7605 5.96621L15.7639 5.96617C15.9959 5.96322 16.1318 5.99894 16.2036 6.03476C16.2593 6.0625 16.2789 6.08957 16.2917 6.12601C16.3053 6.1691 16.3034 6.19878 16.2786 6.24586C16.2439 6.3119 16.1578 6.41566 15.969 6.54712L15.9689 6.54711L15.9664 6.54892L12.1192 9.26289C11.9377 9.39093 11.8624 9.62335 11.9344 9.83348L13.4401 14.2295L13.4411 14.2323C13.5153 14.4448 13.52 14.5741 13.5083 14.6436C13.4995 14.6961 13.4807 14.7276 13.4352 14.7614L13.4337 14.7625C13.3972 14.7898 13.3689 14.7987 13.3109 14.7891C13.2314 14.7758 13.1003 14.7241 12.9073 14.5868C12.907 14.5865 12.9067 14.5863 12.9063 14.5861L9.09001 11.8383C8.91537 11.7125 8.67986 11.7127 8.50533 11.8386L4.69663 14.5861C4.69622 14.5863 4.69582 14.5866 4.69541 14.5869C4.50377 14.7232 4.37082 14.7755 4.28971 14.789C4.22876 14.7991 4.20332 14.7885 4.17386 14.766Z" fill="white" stroke="white" stroke-linejoin="round"/>
</mask>
<g mask="url(#mask0_48_5)">
<path d="M8.68133 1.04272H-0.0124512V15.7927H8.68133V1.04272Z" fill="#FF9D48" stroke="#FF9D48" stroke-width="1.5"/>
</g>
</g>
<defs>
<clipPath id="clip0_48_5">
<rect width="16" height="16" fill="white" transform="translate(0.800049 0.292725)"/>
</clipPath>
</defs>
</svg>
