<svg width="225" height="64" viewBox="0 0 225 64" fill="none" xmlns="http://www.w3.org/2000/svg">
<path fill-rule="evenodd" clip-rule="evenodd" d="M98.0836 49.0964V37.0114H101.292V49.0964H98.0836ZM112.698 39.9386C112.652 39.9253 111.341 39.5738 110.264 39.5738C109.016 39.5738 108.338 39.9791 108.338 40.554C108.338 41.2831 109.254 41.5378 109.766 41.6951L110.624 41.9605C112.645 42.584 113.565 43.9265 113.565 45.3847C113.565 48.3918 110.841 49.4032 108.458 49.4032C106.802 49.4032 105.251 49.1066 105.098 49.0758V46.3198C105.373 46.3869 106.677 46.765 108.038 46.765C109.587 46.765 110.299 46.3259 110.299 45.648C110.299 45.0409 109.682 44.6904 108.91 44.4562C108.723 44.3937 108.439 44.3071 108.245 44.2472C106.512 43.7148 105.066 42.7249 105.066 40.7446C105.066 38.505 106.794 37.0022 109.664 37.0022C111.18 37.0022 112.605 37.3593 112.697 37.3829V39.9381L112.698 39.9386ZM142.306 43.2019C142.306 46.6277 139.582 49.4022 135.788 49.4022C131.993 49.4022 129.272 46.6277 129.272 43.2009C129.272 39.7824 131.994 37.0048 135.788 37.0048C139.582 37.0048 142.306 39.7823 142.306 43.2019ZM135.788 40.0539C133.941 40.0539 132.569 41.4645 132.569 43.2019C132.569 44.9445 133.941 46.3526 135.788 46.3526C137.632 46.3526 139.008 44.9445 139.008 43.2019C139.008 41.4645 137.632 40.0539 135.788 40.0539ZM93.4996 40.6483C93.3743 40.5847 92.3739 40.0098 90.8842 40.0098C88.8687 40.0098 87.4726 41.3687 87.4726 43.2025C87.4726 44.9814 88.8105 46.3976 90.8857 46.3976C92.3484 46.3976 93.366 45.8335 93.4996 45.7628V48.9759C93.1133 49.082 92.0505 49.4022 90.66 49.4022C87.1627 49.4022 84.0918 47.0596 84.0918 43.2009C84.0918 39.6276 86.8721 37.0048 90.6611 37.0048C92.1258 37.0048 93.2069 37.3491 93.4996 37.4341V40.6483ZM125.994 40.6483C125.867 40.5847 124.864 40.0098 123.377 40.0098C121.362 40.0098 119.967 41.3687 119.967 43.2025C119.967 44.9814 121.302 46.3976 123.376 46.3976C124.839 46.3976 125.857 45.8335 125.994 45.7628V48.9759C125.604 49.082 124.539 49.4022 123.158 49.4022C119.656 49.4022 116.582 47.0596 116.582 43.2009C116.582 39.6276 119.363 37.0048 123.158 37.0048C124.617 37.0048 125.7 37.3491 125.994 37.4341V40.6483Z" fill="#050038"/>
<path fill-rule="evenodd" clip-rule="evenodd" d="M148.328 20.6699C148.326 19.8414 147.635 19.1707 146.786 19.1717C145.935 19.1707 145.245 19.8414 145.243 20.6704V23.8128C145.229 24.3575 145.52 24.8668 146.003 25.1424C146.486 25.4191 147.084 25.4191 147.568 25.1424C148.051 24.8657 148.341 24.3564 148.327 23.8128V20.6699H148.328ZM139.85 16.5458C139.85 15.7203 139.162 15.0481 138.29 15.0481C137.441 15.0466 136.752 15.7162 136.75 16.5437V16.5448V23.8133C136.75 24.6408 137.438 25.3115 138.287 25.3115H138.29C139.161 25.3115 139.85 24.6418 139.85 23.8123V16.5432V16.5453V16.5458ZM131.357 10.902C131.356 10.074 130.666 9.40377 129.817 9.40479H129.816C128.967 9.40325 128.277 10.0729 128.275 10.9009V10.9014V26.7984C128.249 27.3497 128.537 27.8708 129.024 28.1526C129.512 28.435 130.12 28.4339 130.607 28.1501C131.093 27.8688 131.381 27.3497 131.356 26.7995V10.902H131.357ZM122.861 16.5458C122.86 15.7183 122.17 15.0481 121.321 15.0491C120.472 15.0476 119.782 15.7178 119.78 16.5453V16.5458V23.8128C119.782 24.6403 120.471 25.3105 121.321 25.309C122.17 25.3105 122.86 24.6403 122.861 23.8128V16.5437V16.5458ZM114.368 20.6699C114.366 19.8439 113.678 19.1758 112.831 19.1768C111.983 19.1748 111.293 19.8419 111.287 20.6689V23.8133C111.288 24.6408 111.978 25.311 112.827 25.3095C113.677 25.3115 114.367 24.6413 114.368 23.8138V23.8133V20.6704V20.6699ZM105.889 16.5458C105.887 15.7147 105.195 15.043 104.343 15.044C103.491 15.043 102.798 15.7147 102.797 16.5458V23.8128C102.798 24.6429 103.49 25.3146 104.342 25.3136H104.343C105.194 25.3151 105.886 24.6434 105.888 23.8133V23.8128V16.5437V16.5458H105.889ZM97.3985 10.902C97.3985 10.077 96.7043 9.40684 95.8531 9.40684C95.0009 9.40684 94.3067 10.0755 94.3067 10.902V26.7984C94.3083 27.629 95.0004 28.3012 95.8526 28.2997C96.7048 28.3012 97.3969 27.629 97.3985 26.7984V10.902ZM88.9094 16.5458C88.9079 15.7147 88.2158 15.043 87.363 15.044C86.5108 15.043 85.8187 15.7147 85.8172 16.5458V23.8128C85.8187 24.6429 86.5103 25.3146 87.362 25.3136H87.3625C88.2147 25.3151 88.9063 24.6434 88.9084 23.8133V23.8128V16.5437V16.5458H88.9094ZM80.4193 20.6704C80.4193 19.846 79.7252 19.1763 78.874 19.1763C78.0228 19.1763 77.3281 19.846 77.3281 20.6694V23.8123C77.3297 24.6429 78.0217 25.3151 78.874 25.3136C79.7257 25.3151 80.4183 24.6434 80.4198 23.8128V20.6699L80.4193 20.6704Z" fill="#050038"/>
</svg>
