<svg width="225" height="64" viewBox="0 0 225 64" fill="none" xmlns="http://www.w3.org/2000/svg">
<path d="M155.568 40.4563C155.568 39.0515 156.709 37.9119 158.113 37.9119C159.517 37.9119 160.656 39.0516 160.656 40.4563C160.656 41.861 159.517 42.9999 158.113 42.9999C156.709 42.9999 155.568 41.861 155.568 40.4563Z" fill="#050038"/>
<path d="M74.4217 33.7179C74.4217 32.1063 74.1102 30.9107 73.4874 30.1317C72.8637 29.3535 71.9192 28.9648 70.6492 28.9648H69.2982V38.82H70.3318C71.7424 38.82 72.776 38.4018 73.4343 37.5625C74.0918 36.7247 74.4217 35.4429 74.4217 33.7179ZM79.2395 33.55C79.2395 36.4861 78.4502 38.7485 76.8718 40.3366C75.2933 41.9254 73.0744 42.7198 70.2141 42.7198H64.6562V25.1261H70.6021C73.3601 25.1261 75.4892 25.8483 76.9895 27.2921C78.4893 28.7366 79.2395 30.8216 79.2395 33.55ZM94.6347 42.7196H99.0573V25.0522H94.6347V42.7196ZM105.27 36.1296C105.27 37.256 105.417 38.1152 105.711 38.7057C106.005 39.2969 106.499 39.5921 107.192 39.5921C107.878 39.5921 108.363 39.2969 108.646 38.7057C108.929 38.1152 109.069 37.2561 109.069 36.1296C109.069 35.009 108.927 34.1639 108.64 33.5933C108.353 33.0212 107.863 32.7348 107.169 32.7348C106.49 32.7348 106.005 33.0197 105.711 33.5866C105.417 34.1543 105.27 35.0017 105.27 36.1296ZM113.571 36.1296C113.571 38.2757 113.008 39.9499 111.88 41.1499C110.753 42.3507 109.175 42.9515 107.147 42.9515C105.202 42.9515 103.654 42.3375 102.504 41.1094C101.354 39.8814 100.779 38.2219 100.779 36.1296C100.779 33.9901 101.342 32.3277 102.47 31.1423C103.598 29.957 105.179 29.3643 107.216 29.3643C108.474 29.3643 109.587 29.6389 110.551 30.1874C111.517 30.736 112.262 31.5215 112.785 32.5449C113.309 33.5667 113.571 34.7624 113.571 36.1296ZM115.327 42.7197H119.75V35.9581V29.5963H115.327V42.7197ZM115.327 28.009H119.75V25.0515H115.327V28.009ZM128.712 39.3724C129.309 39.3724 130.02 39.2207 130.85 38.9196V42.2216C130.253 42.4837 129.686 42.6715 129.148 42.7827C128.609 42.8953 127.976 42.9513 127.253 42.9513C125.768 42.9513 124.697 42.578 124.04 41.8329C123.385 41.0878 123.057 39.9437 123.057 38.3999V32.9901H121.508V29.5975H123.057V26.2462L127.514 25.4709V29.5975H130.336V32.9901H127.514V38.098C127.514 38.9476 127.914 39.3724 128.712 39.3724ZM138.949 39.3724C139.546 39.3724 140.257 39.2207 141.087 38.9196V42.2216C140.491 42.4837 139.923 42.6715 139.385 42.7827C138.845 42.8953 138.215 42.9513 137.49 42.9513C136.005 42.9513 134.934 42.578 134.278 41.8329C133.622 41.0878 133.294 39.9437 133.294 38.3999V32.9901H131.744V29.5975H133.294V26.1954L137.75 25.4709V29.5975H140.574V32.9901H137.75V38.098C137.75 38.9476 138.15 39.3724 138.949 39.3724ZM146.668 34.5309C146.728 33.8123 146.934 33.2859 147.284 32.9494C147.636 32.6137 148.07 32.4459 148.59 32.4459C149.157 32.4459 149.608 32.6343 149.942 33.0142C150.278 33.3919 150.453 33.8977 150.468 34.5309H146.668ZM152.905 30.9115C151.854 29.8808 150.362 29.3647 148.433 29.3647C146.404 29.3647 144.844 29.9574 143.749 31.1427C142.656 32.3281 142.109 34.0288 142.109 36.2448C142.109 38.3909 142.7 40.0459 143.88 41.2077C145.06 42.3695 146.717 42.9511 148.852 42.9511C149.876 42.9511 150.758 42.8812 151.498 42.7421C152.232 42.6044 152.944 42.3555 153.633 41.9963L152.954 39.0388C152.452 39.2435 151.975 39.4011 151.525 39.5049C150.874 39.6558 150.16 39.7316 149.382 39.7316C148.53 39.7316 147.857 39.5233 147.363 39.1066C146.87 38.6891 146.607 38.1134 146.577 37.3801H154.483V35.365C154.483 33.4265 153.957 31.9415 152.905 30.9115ZM85.1094 34.5309C85.1698 33.8123 85.3752 33.2859 85.7255 32.9494C86.0767 32.6137 86.5118 32.4459 87.0323 32.4459C87.5977 32.4459 88.0484 32.6343 88.3833 33.0142C88.7198 33.3919 88.8943 33.8977 88.9098 34.5309H85.1094ZM91.3475 30.9115C90.2955 29.8808 88.8047 29.3647 86.8742 29.3647C84.8452 29.3647 83.285 29.9574 82.1917 31.1427C81.0984 32.3281 80.5507 34.0288 80.5507 36.2448C80.5507 38.3909 81.1411 40.0459 82.3221 41.2077C83.5015 42.3695 85.1588 42.9511 87.2931 42.9511C88.3179 42.9511 89.1999 42.8812 89.939 42.7421C90.6738 42.6044 91.385 42.3555 92.0755 41.9963L91.3952 39.0388C90.8938 39.2435 90.4167 39.4011 89.9669 39.5049C89.3146 39.6558 88.6013 39.7316 87.8236 39.7316C86.9718 39.7316 86.2982 39.5233 85.8049 39.1066C85.3108 38.6891 85.0488 38.1134 85.0186 37.3801H92.9243V35.365C92.9243 33.4265 92.3987 31.9415 91.3474 30.9115" fill="#050038"/>
</svg>
