<svg width="118" height="64" viewBox="0 0 118 64" fill="none" xmlns="http://www.w3.org/2000/svg">
<path d="M67.7275 34.9477C67.7275 32.1827 66.544 29.7397 62.541 29.7397C60.4872 29.7397 58.8558 30.325 57.9712 30.8374L58.6195 33.0557C59.4339 32.5448 60.7334 32.124 61.9599 32.124C63.9865 32.1212 64.3185 33.2675 64.3185 34.0046V34.182C59.8947 34.1748 57.0983 35.7034 57.0983 38.8162C57.0983 40.7183 58.5179 42.5015 60.9996 42.5015C62.5138 42.5015 63.7932 41.8904 64.5575 40.9257H64.6319C64.6319 40.9257 65.1358 43.0339 67.9222 42.2281C67.7805 41.3451 67.7275 40.4148 67.7275 39.2842V34.9477ZM64.4273 37.8673C64.4273 38.0907 64.4087 38.3225 64.3429 38.5214C64.0881 39.373 63.2093 40.0856 62.1159 40.0856C61.1929 40.0856 60.4687 39.5633 60.4687 38.4684C60.4687 36.7939 62.3176 36.3331 64.4273 36.3446" fill="#050038"/>
<path d="M0 25.9781C0 25.9781 2.88953 37.7996 3.34894 39.7146C3.88992 41.9529 4.85884 42.7802 7.65537 42.2291L9.4615 34.8987C9.91805 33.0825 10.2286 31.7801 10.5234 29.9296H10.5735C10.7782 31.7987 11.073 33.0825 11.4465 34.9044C11.4465 34.9044 12.1836 38.2348 12.5657 39.9794C12.9378 41.724 13.9854 42.8246 16.729 42.2291L21.0283 25.9781H17.5576L16.0821 33.0081C15.6914 35.0447 15.3365 36.649 15.0603 38.5153H15.0101C14.7612 36.669 14.4448 35.1305 14.0384 33.1354L12.5099 25.9781H8.88904L7.25748 32.9522C6.79233 35.0819 6.35728 36.7893 6.0839 38.5968H6.03669C5.75476 36.9008 5.37264 34.7412 4.96758 32.6918C4.96758 32.6918 3.99868 27.6985 3.65665 25.9781" fill="#050038"/>
<path d="M30.6997 34.9477C30.6997 32.1827 29.5132 29.7397 25.5102 29.7397C23.4622 29.7397 21.8278 30.325 20.9433 30.8374L21.5916 33.0557C22.4031 32.5448 23.7012 32.124 24.932 32.124C26.9585 32.1212 27.2905 33.2675 27.2905 34.0046V34.182C22.8668 34.1748 20.0675 35.7034 20.0675 38.8162C20.0675 40.7183 21.4929 42.5015 23.9631 42.5015C25.4915 42.5015 26.7596 41.8904 27.5238 40.9257H27.6012C27.6012 40.9257 28.1078 43.0339 30.8914 42.2281C30.7484 41.3451 30.6997 40.4148 30.6997 39.2842V34.9477ZM27.3965 37.8673C27.3965 38.0907 27.378 38.3225 27.3149 38.5214C27.0572 39.373 26.1786 40.0856 25.0823 40.0856C24.1649 40.0856 23.4379 39.5633 23.4379 38.4684C23.4379 36.7939 25.2869 36.3331 27.3965 36.3446" fill="#050038"/>
<path d="M32.5009 25.9781V42.2234H35.804V38.7786V25.9781H32.5009Z" fill="#050038"/>
<path d="M77.8651 25.9781V37.9643C77.8651 39.6187 78.1756 40.7723 78.8439 41.4792C79.4308 42.0989 80.391 42.5025 81.5345 42.5025C82.5164 42.5025 83.4766 42.3135 83.9303 42.149L83.8903 39.5686C83.5511 39.6473 83.1633 39.7146 82.6308 39.7146C81.5031 39.7146 81.131 39.0004 81.131 37.5148V32.9265H84.0076V29.8222H81.131V25.9781" fill="#050038"/>
<path d="M69.328 30.0214V42.2279H72.7428V35.9765C72.7428 35.6402 72.7641 35.3496 72.8172 35.0805C73.0718 33.7625 74.0723 32.9281 75.5135 32.9281C75.9157 32.9281 76.189 32.9725 76.4925 33.0197V29.8196C76.2377 29.7738 76.0645 29.7494 75.7511 29.7494C74.473 29.7494 73.0246 30.5609 72.4136 32.3284H72.3292V30.0214" fill="#050038"/>
<path d="M37.7224 30.0214V42.2279H41.0499V35.0635C41.0499 34.7271 41.0871 34.3836 41.2059 34.073C41.4764 33.3474 42.1475 32.5073 43.2252 32.5073C44.5648 32.5073 45.1974 33.6379 45.1974 35.2695V42.2279H48.5163V34.9776C48.5163 34.6612 48.5607 34.2734 48.6537 33.9928C48.9199 33.1699 49.647 32.5073 50.6517 32.5073C52.0055 32.5073 52.6611 33.6137 52.6611 35.5372V42.2279H55.9769V35.0305C55.9769 31.2494 54.0536 29.7494 51.8695 29.7494C50.9093 29.7494 50.1451 29.9856 49.458 30.4093C48.877 30.7655 48.3675 31.2679 47.9109 31.9248H47.8609C47.3356 30.611 46.1019 29.7494 44.4904 29.7494C42.4238 29.7494 41.4849 30.7927 40.9325 31.6744H40.8824V30.0214" fill="#050038"/>
<path d="M101.879 29.4738C102.532 29.4738 103.081 29.1332 103.153 28.6952L103.8 21.3675C103.8 20.642 102.945 20.048 101.879 20.048C100.807 20.048 99.9585 20.642 99.9585 21.3675L100.611 28.6952C100.68 29.1332 101.226 29.4738 101.879 29.4738Z" fill="#050038"/>
<path d="M97.9097 31.7669C98.2331 31.1944 98.2145 30.559 97.8654 30.2755L91.8257 26.0523C91.1974 25.6859 90.2572 26.1224 89.7191 27.0469C89.1823 27.97 89.2911 29.0061 89.9066 29.3653L96.5929 32.4653C97.0209 32.6256 97.5805 32.3279 97.9097 31.7612" fill="#050038"/>
<path d="M105.847 31.7609C106.189 32.3277 106.748 32.6254 107.165 32.4737L113.851 29.3652C114.473 28.9988 114.566 27.9726 114.04 27.0495C113.504 26.1249 112.558 25.6913 111.931 26.0505L105.89 30.2697C105.555 30.5574 105.531 31.1956 105.854 31.7667" fill="#050038"/>
<path d="M101.879 38.6266C102.532 38.6266 103.081 38.9673 103.153 39.4053L103.8 46.7328C103.8 47.4585 102.945 48.0466 101.879 48.0466C100.807 48.0466 99.9585 47.4585 99.9585 46.7328L100.611 39.4053C100.68 38.9673 101.226 38.6266 101.879 38.6266Z" fill="#050038"/>
<path d="M105.847 36.341C106.189 35.7728 106.748 35.4693 107.165 35.634L113.851 38.7368C114.473 39.0959 114.566 40.1307 114.04 41.0552C113.504 41.9726 112.558 42.4091 111.931 42.05L105.89 37.8251C105.555 37.5403 105.531 36.9048 105.854 36.341" fill="#050038"/>
<path d="M97.9097 36.3349C98.2331 36.9059 98.2145 37.5399 97.8654 37.8261L91.8257 42.0438C91.1974 42.4102 90.2572 41.9722 89.7191 41.0549C89.1823 40.1318 89.2911 39.0956 89.9066 38.7364L96.5929 35.6336C97.0209 35.4704 97.5805 35.7709 97.9097 36.3349Z" fill="#050038"/>
<path d="M115.808 41.4064H115.891C116.004 41.4064 116.05 41.4421 116.063 41.5324C116.087 41.6325 116.1 41.6998 116.124 41.7284H116.339C116.32 41.7069 116.296 41.6525 116.283 41.5266C116.259 41.4179 116.203 41.3563 116.124 41.3348V41.3148C116.233 41.2905 116.296 41.2175 116.296 41.1273C116.296 41.0457 116.259 40.9871 116.222 40.9499C116.15 40.9155 116.081 40.8883 115.93 40.8883C115.795 40.8883 115.696 40.8997 115.618 40.9184V41.7284H115.808V41.4064ZM115.814 41.0372L115.911 41.0243C116.026 41.0243 116.087 41.0772 116.087 41.1516C116.087 41.2347 116.004 41.2733 115.898 41.2733H115.814V41.0372ZM115.935 40.4876C115.466 40.4876 115.094 40.854 115.094 41.3033C115.094 41.7642 115.466 42.1306 115.935 42.1306C116.411 42.1306 116.771 41.7642 116.771 41.3033C116.771 40.854 116.411 40.4876 115.935 40.4876ZM115.935 40.6522C116.296 40.6522 116.564 40.9441 116.564 41.3033C116.564 41.6654 116.296 41.966 115.935 41.9602C115.575 41.9602 115.301 41.6654 115.301 41.3033C115.301 40.9441 115.575 40.6522 115.93 40.6522" fill="#050038"/>
</svg>
