<svg width="59" height="32" viewBox="0 0 59 32" fill="none" xmlns="http://www.w3.org/2000/svg">
<g clip-path="url(#clip0_4_39)">
<path d="M7.75431 19.0433C7.69197 19.1056 7.58811 19.1834 7.44289 19.2768C7.2974 19.3703 7.1081 19.4637 6.87454 19.5572C6.64099 19.6505 6.35535 19.7308 6.01815 19.7985C5.68064 19.8658 5.29412 19.8997 4.85814 19.8997C4.01723 19.8997 3.29053 19.7646 2.67815 19.4949C2.06551 19.2252 1.5595 18.8486 1.15996 18.366C0.760271 17.8833 0.467101 17.3125 0.28025 16.6531C0.0933985 15.994 0 15.27 0 14.481C0 13.6923 0.101192 12.9628 0.303627 12.2933C0.50601 11.6237 0.809637 11.0452 1.21446 10.5571C1.61933 10.0693 2.12539 9.68779 2.73269 9.41261C3.33995 9.13775 4.05352 9 4.87367 9C5.27854 9 5.64445 9.03645 5.97145 9.10898C6.29846 9.18167 6.58383 9.26739 6.8279 9.36591C7.07165 9.4647 7.27413 9.56829 7.43515 9.67733C7.59596 9.78631 7.71791 9.87736 7.80111 9.94979C7.89451 10.033 7.97484 10.1316 8.04246 10.2456C8.10987 10.36 8.14365 10.4846 8.14365 10.6194C8.14365 10.8271 8.06578 11.0347 7.9101 11.2422C7.75441 11.45 7.58309 11.642 7.39619 11.8184C7.27162 11.6938 7.13152 11.5668 6.97584 11.4369C6.8201 11.3072 6.64617 11.1931 6.45419 11.0943C6.26201 10.9958 6.04399 10.9128 5.80019 10.8452C5.55618 10.7778 5.28372 10.7439 4.98276 10.7439C4.45332 10.7439 4.00959 10.8505 3.65142 11.0632C3.2933 11.2761 3.00521 11.5536 2.78724 11.8962C2.56927 12.2388 2.41354 12.6307 2.32009 13.0718C2.22669 13.5131 2.17998 13.962 2.17998 14.4187C2.17998 14.9068 2.22669 15.3739 2.32009 15.8201C2.41348 16.2664 2.57429 16.661 2.80282 17.0034C3.03099 17.346 3.32954 17.6212 3.69812 17.8287C4.06644 18.0365 4.5258 18.1401 5.07616 18.1401C5.36661 18.1401 5.63405 18.1039 5.87806 18.0312C6.1218 17.9586 6.33737 17.8703 6.52422 17.7663C6.71107 17.6628 6.8746 17.5539 7.0147 17.4395C7.15485 17.3253 7.27162 17.2268 7.36508 17.1436C7.42736 17.2164 7.49984 17.3047 7.58304 17.4084C7.66668 17.5131 7.74464 17.6223 7.81659 17.7354C7.88913 17.8497 7.95141 17.9638 8.00344 18.0778C8.05527 18.1922 8.08126 18.2959 8.08126 18.3892C8.08126 18.5243 8.05527 18.6384 8.00344 18.7318C7.95136 18.8253 7.86837 18.9292 7.75431 19.0433ZM15.7787 17.8491C15.7787 18.6741 15.8986 19.2746 16.1389 19.6506C15.951 19.7235 15.776 19.7758 15.6142 19.8072C15.4521 19.8385 15.2825 19.8541 15.1051 19.8541C14.7292 19.8541 14.4445 19.781 14.2514 19.6348C14.0581 19.4888 13.9354 19.2799 13.8833 19.0082C13.6534 19.2487 13.3506 19.4522 12.9747 19.6194C12.5987 19.7861 12.1391 19.8699 11.5962 19.8699C11.3142 19.8699 11.0323 19.8308 10.7503 19.753C10.4683 19.6745 10.2123 19.5472 9.98267 19.3705C9.75283 19.1934 9.56493 18.9565 9.41877 18.6598C9.27239 18.3631 9.19944 18.0014 9.19944 17.5747C9.19944 17.0438 9.32725 16.6116 9.58324 16.2786C9.83907 15.9454 10.1602 15.6826 10.5467 15.4899C10.9329 15.2975 11.3507 15.165 11.7999 15.0919C12.2488 15.019 12.6614 14.9723 13.0373 14.9512C13.1628 14.9409 13.2853 14.9355 13.4055 14.9355H13.7423V14.6504C13.7423 14.249 13.6351 13.9638 13.4211 13.795C13.2069 13.6261 12.8596 13.5414 12.3794 13.5414C11.9303 13.5414 11.5308 13.6145 11.1811 13.7607C10.8311 13.907 10.4891 14.074 10.155 14.262C10.0087 14.0845 9.8911 13.8887 9.80256 13.6745C9.71377 13.4606 9.66942 13.3013 9.66942 13.1968C9.66942 13.0506 9.75016 12.9097 9.91223 12.7738C10.074 12.6382 10.296 12.5153 10.578 12.4057C10.86 12.296 11.1836 12.2074 11.5493 12.1394C11.9147 12.0716 12.3011 12.0376 12.7085 12.0376C13.2724 12.0376 13.7501 12.0951 14.1417 12.2099C14.5334 12.3249 14.8518 12.5024 15.0973 12.7425C15.3426 12.9829 15.5176 13.2829 15.622 13.6432C15.7263 14.0035 15.7787 14.424 15.7787 14.9042V17.8491ZM13.7735 16.032H13.5543C13.481 16.032 13.4079 16.0374 13.335 16.0477C13.0737 16.0688 12.8152 16.1 12.5596 16.1416C12.3035 16.1835 12.0764 16.2566 11.8782 16.361C11.6797 16.4655 11.5179 16.6013 11.3926 16.7682C11.2672 16.9354 11.2045 17.1496 11.2045 17.4106C11.2045 17.703 11.288 17.9509 11.4551 18.1546C11.6221 18.3583 11.9041 18.4601 12.3011 18.4601C12.4993 18.4601 12.6874 18.4341 12.865 18.3816C13.0425 18.3297 13.1991 18.2617 13.335 18.1782C13.4706 18.0946 13.5778 18.0033 13.6561 17.9039C13.7344 17.8048 13.7736 17.7135 13.7736 17.6299V16.032H13.7735ZM19.679 12.9461C19.8454 12.7478 20.1059 12.5466 20.4597 12.3429C20.8137 12.1393 21.2613 12.0375 21.8027 12.0375C22.1881 12.0375 22.555 12.1028 22.9038 12.2333C23.2523 12.364 23.5622 12.5755 23.8328 12.8677C24.1036 13.1602 24.3196 13.5467 24.481 14.0269C24.6424 14.5074 24.7231 15.0975 24.7231 15.797C24.7231 16.6115 24.6293 17.2827 24.442 17.8099C24.2544 18.3375 24.0126 18.7552 23.716 19.0632C23.4193 19.3713 23.0886 19.588 22.7244 19.7132C22.3599 19.8385 21.9955 19.9013 21.6313 19.9013C21.3293 19.9013 21.0663 19.8673 20.8427 19.7995C20.6187 19.7314 20.4288 19.656 20.2726 19.5723C20.1165 19.4888 19.9968 19.4054 19.9136 19.3216C19.8304 19.2382 19.7782 19.1806 19.7575 19.1492V23H17.627V12.2567C17.6794 12.2465 17.7426 12.236 17.8164 12.2255C17.8796 12.2152 17.9533 12.2073 18.0375 12.2019C18.1216 12.1968 18.2216 12.1942 18.3373 12.1942C18.6844 12.1942 18.979 12.2517 19.2211 12.3665C19.463 12.4815 19.6158 12.6746 19.679 12.9461ZM22.4987 15.844C22.4987 15.5307 22.4727 15.2385 22.4208 14.9668C22.3689 14.6954 22.2833 14.4604 22.1638 14.2619C22.0444 14.0636 21.8833 13.9094 21.6809 13.7997C21.4782 13.6901 21.2318 13.6354 20.9412 13.6354C20.5051 13.6354 20.2013 13.719 20.0299 13.8859C19.8587 14.0531 19.773 14.236 19.773 14.4342V17.7552C19.8559 17.8389 20.0037 17.9379 20.2167 18.0528C20.4297 18.1678 20.6761 18.225 20.9566 18.225C21.4862 18.225 21.8756 18.0164 22.1249 17.5985C22.3741 17.1809 22.4987 16.5959 22.4987 15.844ZM26.3674 18.5384C26.2942 18.3297 26.2472 18.1102 26.2264 17.8804C26.2054 17.6508 26.1951 17.4211 26.1951 17.1911V9.9227C26.268 9.91245 26.3464 9.90194 26.43 9.89137C26.5029 9.88112 26.5813 9.87333 26.665 9.86789C26.7485 9.86277 26.8319 9.8601 26.9156 9.8601C27.0825 9.8601 27.2498 9.87579 27.4169 9.90706C27.5838 9.93844 27.7353 10.0011 27.8713 10.095C28.0069 10.189 28.1165 10.3171 28.2001 10.4788C28.2837 10.6408 28.3254 10.8524 28.3254 11.1132V12.2254H30.5186V13.8076H28.3254V17.1481C28.3254 17.8766 28.6231 18.2407 29.2184 18.2407C29.3645 18.2407 29.5028 18.2173 29.6335 18.1702C29.764 18.1232 29.8814 18.0711 29.986 18.0136C30.0903 17.9562 30.1818 17.8962 30.2601 17.8335C30.3384 17.7708 30.3932 17.7239 30.4245 17.6925C30.5812 17.9224 30.7011 18.1214 30.7848 18.2893C30.8683 18.4575 30.9101 18.6152 30.9101 18.7627C30.9101 18.8998 30.8554 19.0343 30.7457 19.166C30.6359 19.2977 30.4818 19.4191 30.2835 19.5297C30.0851 19.6403 29.845 19.7299 29.563 19.7985C29.281 19.867 28.9728 19.9013 28.6387 19.9013C27.9911 19.9013 27.4873 19.7759 27.127 19.5254C26.7668 19.2746 26.5134 18.9456 26.3674 18.5384ZM35.9142 18.3347C36.1761 18.3347 36.4067 18.3061 36.606 18.2485C36.805 18.1913 36.9831 18.1208 37.1404 18.0372C37.2974 17.9538 37.4338 17.8623 37.5491 17.7631C37.6644 17.6639 37.7691 17.5726 37.8637 17.4889C37.9892 17.6454 38.1202 17.8467 38.2565 18.0919C38.3927 18.3375 38.4609 18.5384 38.4609 18.695C38.4609 18.9248 38.3302 19.1337 38.0693 19.3216C37.85 19.4888 37.5391 19.6324 37.1373 19.7524C36.7351 19.8724 36.2624 19.9325 35.7196 19.9325C35.2285 19.9325 34.7456 19.8699 34.2706 19.7446C33.7953 19.6193 33.3723 19.3999 33.0017 19.0866C32.6309 18.7734 32.3306 18.3531 32.1009 17.8257C31.8712 17.2983 31.7563 16.6327 31.7563 15.8284C31.7563 15.1704 31.8582 14.6041 32.0617 14.1288C32.2654 13.6537 32.5368 13.2594 32.8765 12.9461C33.2156 12.6328 33.5994 12.4032 34.0277 12.2568C34.4558 12.1107 34.8945 12.0375 35.3436 12.0375C35.9284 12.0375 36.4244 12.1291 36.8317 12.3117C37.2391 12.4945 37.5704 12.74 37.8265 13.0479C38.0822 13.356 38.2675 13.7085 38.3825 14.1053C38.4973 14.5023 38.5548 14.9198 38.5548 15.3584V15.5777C38.5548 15.6615 38.5522 15.75 38.547 15.844C38.5417 15.9381 38.5365 16.0296 38.5314 16.1181C38.526 16.2071 38.5181 16.2775 38.508 16.3297H33.8867C33.9286 16.9041 34.1067 17.3818 34.4211 17.7631C34.7352 18.1444 35.233 18.3347 35.9142 18.3347ZM36.6281 15.1547C36.6281 14.6535 36.5308 14.2462 36.3365 13.9329C36.1422 13.6197 35.7928 13.4629 35.2889 13.4629C34.8581 13.4629 34.5142 13.6118 34.2569 13.9094C33.9994 14.2071 33.8711 14.6222 33.8711 15.1547H36.6281ZM42.2623 12.9856C42.3248 12.8925 42.4083 12.7889 42.5129 12.6748C42.6171 12.5608 42.7452 12.4572 42.8967 12.364C43.048 12.2708 43.2151 12.1929 43.398 12.1308C43.5805 12.0686 43.7764 12.0375 43.9855 12.0375C44.1107 12.0375 44.2439 12.048 44.3848 12.0686C44.5258 12.0894 44.6562 12.1283 44.7764 12.1851C44.8964 12.2422 44.9931 12.3197 45.0662 12.4181C45.1392 12.5166 45.1759 12.6382 45.1759 12.7831C45.1759 13.011 45.1183 13.2726 45.0036 13.5681C44.8885 13.8637 44.7739 14.1158 44.659 14.3246C44.4813 14.1784 44.3038 14.0662 44.1263 13.9878C43.9487 13.9095 43.7398 13.8703 43.4997 13.8703C43.176 13.8703 42.9045 13.9646 42.6853 14.153C42.4658 14.3415 42.3562 14.5667 42.3562 14.8285V19.8996H40.2259V12.2567C40.278 12.2465 40.3406 12.236 40.4138 12.2255C40.4764 12.2152 40.5495 12.2073 40.6331 12.2019C40.7166 12.1968 40.8157 12.1942 40.9307 12.1942C41.2648 12.1942 41.5546 12.2589 41.8001 12.3883C42.0453 12.5174 42.1996 12.7167 42.2623 12.9856ZM48.3193 12.9856C48.3819 12.8925 48.4654 12.7889 48.5699 12.6748C48.6742 12.5608 48.8022 12.4572 48.9537 12.364C49.105 12.2708 49.2721 12.1929 49.455 12.1308C49.6376 12.0686 49.8334 12.0375 50.0424 12.0375C50.1677 12.0375 50.3008 12.048 50.4418 12.0686C50.5827 12.0894 50.7133 12.1283 50.8334 12.1851C50.9535 12.2422 51.05 12.3197 51.1234 12.4181C51.1963 12.5166 51.233 12.6382 51.233 12.7831C51.233 13.011 51.1753 13.2726 51.0607 13.5681C50.9455 13.8637 50.8308 14.1158 50.716 14.3246C50.5384 14.1784 50.3607 14.0662 50.1833 13.9878C50.0058 13.9095 49.7969 13.8703 49.5568 13.8703C49.233 13.8703 48.9615 13.9646 48.7422 14.153C48.5229 14.3415 48.4133 14.5667 48.4133 14.8285V19.8996H46.2829V12.2567C46.335 12.2465 46.3977 12.236 46.4709 12.2255C46.5336 12.2152 46.6066 12.2073 46.6902 12.2019C46.7736 12.1968 46.8727 12.1942 46.9877 12.1942C47.322 12.1942 47.6117 12.2589 47.8571 12.3883C48.1024 12.5174 48.2565 12.7167 48.3193 12.9856ZM58.4858 17.8491C58.4858 18.6741 58.6058 19.2746 58.8461 19.6506C58.6581 19.7235 58.4832 19.7758 58.3214 19.8072C58.1594 19.8385 57.9897 19.8541 57.8123 19.8541C57.4362 19.8541 57.1517 19.781 56.9586 19.6348C56.7651 19.4888 56.6426 19.2799 56.5904 19.0082C56.3606 19.2487 56.0578 19.4522 55.6818 19.6194C55.3059 19.7861 54.8462 19.8699 54.3034 19.8699C54.0214 19.8699 53.7395 19.8308 53.4574 19.753C53.1755 19.6745 52.9194 19.5472 52.6899 19.3705C52.46 19.1934 52.2721 18.9565 52.1259 18.6598C51.9796 18.3631 51.9067 18.0014 51.9067 17.5747C51.9067 17.0438 52.0343 16.6116 52.2905 16.2786C52.5462 15.9454 52.8674 15.6826 53.2539 15.4899C53.6401 15.2975 54.0578 15.165 54.5071 15.0919C54.9559 15.019 55.3686 14.9723 55.7445 14.9512C55.8699 14.9409 55.9925 14.9355 56.1128 14.9355H56.4495V14.6504C56.4495 14.249 56.3422 13.9638 56.1283 13.795C55.914 13.6261 55.5668 13.5414 55.0866 13.5414C54.6375 13.5414 54.2381 13.6145 53.8883 13.7607C53.5383 13.907 53.1963 14.074 52.8622 14.262C52.7159 14.0845 52.5982 13.8887 52.5097 13.6745C52.421 13.4606 52.3766 13.3013 52.3766 13.1968C52.3766 13.0506 52.4574 12.9097 52.6194 12.7738C52.7812 12.6382 53.0032 12.5153 53.2851 12.4057C53.5672 12.296 53.8907 12.2074 54.2563 12.1394C54.6218 12.0716 55.0083 12.0376 55.4156 12.0376C55.9795 12.0376 56.4573 12.0951 56.8489 12.2099C57.2405 12.3249 57.5589 12.5024 57.8044 12.7425C58.0497 12.9829 58.2246 13.2829 58.3292 13.6432C58.4334 14.0035 58.4858 14.424 58.4858 14.9042V17.8491ZM56.4807 16.032H56.2614C56.1882 16.032 56.1151 16.0374 56.0422 16.0477C55.781 16.0688 55.5224 16.1 55.2667 16.1416C55.0107 16.1835 54.7836 16.2566 54.5853 16.361C54.3868 16.4655 54.225 16.6013 54.0997 16.7682C53.9744 16.9354 53.9117 17.1496 53.9117 17.4106C53.9117 17.703 53.9952 17.9509 54.1623 18.1546C54.3293 18.3583 54.6114 18.4601 55.0083 18.4601C55.2066 18.4601 55.3946 18.4341 55.5722 18.3816C55.7497 18.3297 55.9063 18.2617 56.0422 18.1782C56.1777 18.0946 56.285 18.0033 56.3633 17.9039C56.4416 17.8048 56.4808 17.7135 56.4808 17.6299V16.032H56.4807Z" fill="#050038"/>
</g>
<defs>
<clipPath id="clip0_4_39">
<rect width="59" height="32" fill="white"/>
</clipPath>
</defs>
</svg>
