<svg width="50" height="32" viewBox="0 0 50 32" fill="none" xmlns="http://www.w3.org/2000/svg">
<g clip-path="url(#clip0_4_36)">
<path d="M0.0267243 13.2866C0.040547 12.7452 0.148363 12.2103 0.345106 11.7057C0.529496 11.2407 0.81353 10.8218 1.17723 10.4783C1.56627 10.1235 2.02449 9.85307 2.5231 9.68395C3.12669 9.48582 3.76023 9.39045 4.39562 9.40289C5.10288 9.37985 5.80875 9.49043 6.47593 9.72726C6.95424 9.90384 7.39526 10.1684 7.77618 10.5073C8.06764 10.767 8.29894 11.0871 8.45396 11.4454C8.56638 11.7067 8.64056 11.9827 8.67466 12.2656C8.68061 12.3176 8.67386 12.3703 8.65501 12.4192C8.63615 12.468 8.60574 12.5116 8.56638 12.5462C8.48901 12.6165 8.38803 12.6551 8.28348 12.6544H7.11454C7.02323 12.6586 6.93336 12.6306 6.86066 12.5752C6.80432 12.5299 6.75816 12.4732 6.7252 12.4089C6.67624 12.3232 6.62555 12.2386 6.57315 12.155C6.46607 11.9998 6.33405 11.8634 6.18243 11.7514C5.96911 11.5928 5.73359 11.4666 5.48346 11.3768C5.13537 11.2558 4.76809 11.1996 4.39976 11.2109C3.76902 11.1794 3.1498 11.3882 2.66686 11.7951C2.44923 11.9941 2.27527 12.236 2.15599 12.5057C2.03671 12.7754 1.97469 13.0668 1.97388 13.3617C1.95317 13.7538 1.94349 14.1463 1.94485 14.5389C1.94485 14.9568 1.94485 15.3499 1.97388 15.7162C2.00106 16.5151 2.23421 17.0952 2.66686 17.4551C3.16027 17.8356 3.77332 18.0274 4.39562 17.996C4.72635 17.9985 5.05609 17.9594 5.37703 17.8794C5.65809 17.8108 5.92118 17.6831 6.14925 17.5053C6.37272 17.3224 6.54643 17.086 6.6547 16.8188C6.78372 16.487 6.845 16.1336 6.83578 15.7784V15.6558H5.07385C5.02248 15.6566 4.9715 15.6467 4.92421 15.6266C4.87691 15.6065 4.83434 15.5768 4.79924 15.5392C4.76252 15.5041 4.7334 15.4618 4.71366 15.415C4.69393 15.3681 4.68401 15.3178 4.68451 15.2669V14.2408C4.68558 14.1377 4.72688 14.0391 4.79962 13.9661C4.87235 13.893 4.97076 13.8512 5.07385 13.8496H8.40189C8.50506 13.8512 8.60354 13.893 8.67628 13.9662C8.74903 14.0394 8.79028 14.1381 8.79123 14.2413V15.8281C8.79725 16.3723 8.70419 16.9129 8.51662 17.4237C8.33637 17.8968 8.05197 18.3233 7.68449 18.6715C7.29102 19.0431 6.82297 19.3267 6.31144 19.5036C5.06602 19.8934 3.7312 19.8934 2.48578 19.5036C1.98891 19.3393 1.53332 19.0697 1.15005 18.7134C0.790603 18.3615 0.512283 17.9353 0.334509 17.4647C0.141286 16.9544 0.0358181 16.4151 0.0225762 15.8696C0.0225762 15.6867 0.00598983 15.4849 0.00184303 15.2642C-0.00230378 15.0439 0.00184303 14.8149 0.00184303 14.5841V13.9059C0.00184303 13.6833 0.0142826 13.4898 0.0225762 13.2986M13.2389 13.7358C12.9944 13.729 12.7511 13.7708 12.5229 13.8589C12.3386 13.9317 12.17 14.0386 12.0257 14.1749C11.8952 14.2987 11.7894 14.4462 11.7138 14.6094C11.6471 14.7534 11.6016 14.9063 11.5788 15.0633H14.8405C14.8196 14.9088 14.7833 14.7567 14.7322 14.6094C14.6782 14.4473 14.5893 14.299 14.4719 14.1749C14.3383 14.0363 14.1756 13.9284 13.9959 13.8589C13.754 13.7685 13.4966 13.7267 13.2385 13.7358H13.2389ZM9.70215 15.9014C9.69846 15.3835 9.7814 14.8693 9.94773 14.3786C10.0989 13.92 10.3393 13.4958 10.655 13.1304C10.9656 12.7778 11.3469 12.4945 11.7742 12.2987C12.232 12.0941 12.7287 11.9911 13.2302 11.9969C13.731 11.9906 14.2274 12.0912 14.6861 12.2923C15.1161 12.4796 15.5028 12.7536 15.8219 13.0972C16.1348 13.4362 16.3779 13.8334 16.5375 14.2662C16.707 14.7163 16.7932 15.1937 16.7913 15.6747V16.3239C16.7897 16.4271 16.7479 16.5256 16.6749 16.5985C16.6019 16.6714 16.5033 16.7131 16.4002 16.7146H11.5783C11.5737 16.9178 11.6198 17.1192 11.7138 17.2993C11.806 17.4629 11.9322 17.6048 12.0843 17.7154C12.2441 17.8338 12.4248 17.9218 12.6164 17.9753C12.8197 18.0318 13.0297 18.0605 13.2408 18.0605C13.4942 18.0679 13.7476 18.0361 13.9918 17.967C14.1623 17.9154 14.3235 17.8352 14.4677 17.7297C14.5488 17.6675 14.6359 17.614 14.7281 17.5698C14.8156 17.5371 14.9092 17.5219 15.0027 17.526H16.1569C16.2629 17.5274 16.3642 17.5693 16.4398 17.6426C16.4782 17.6766 16.508 17.7192 16.5268 17.7669C16.5456 17.8146 16.5529 17.8661 16.5481 17.9172C16.5157 18.1058 16.4388 18.284 16.3237 18.4369C16.1546 18.6811 15.9431 18.8922 15.6994 19.0613C15.3795 19.2838 15.0293 19.459 14.6594 19.5815C14.2004 19.731 13.7192 19.8011 13.2366 19.7888C12.7374 19.7946 12.2421 19.6993 11.7806 19.5087C11.3504 19.3306 10.9651 19.0591 10.6527 18.7139C10.3375 18.3529 10.0973 17.9328 9.94589 17.4781C9.77651 16.9685 9.6935 16.4342 9.7003 15.8972M20.2493 16.9413C20.2355 17.2012 20.3207 17.456 20.4885 17.655C20.6465 17.8338 20.9418 17.9232 21.3768 17.9232H22.2568C22.3598 17.9244 22.4582 17.9657 22.5312 18.0383C22.6041 18.1109 22.6459 18.2091 22.6476 18.3121V19.2649C22.646 19.3682 22.6043 19.4668 22.5313 19.5398C22.4582 19.6128 22.3596 19.6546 22.2564 19.6561H21.1874C20.2816 19.6561 19.5886 19.4368 19.1071 18.9986C18.6261 18.5609 18.3833 17.8891 18.3791 16.9851V13.8796H17.418C17.367 13.8802 17.3164 13.8702 17.2695 13.8501C17.2226 13.83 17.1804 13.8004 17.1457 13.763C17.1079 13.7285 17.078 13.6863 17.0579 13.6392C17.0378 13.5922 17.028 13.5414 17.0291 13.4903V12.536C17.0285 12.485 17.0386 12.4345 17.0587 12.3876C17.0787 12.3407 17.1084 12.2985 17.1457 12.2637C17.1807 12.2268 17.223 12.1974 17.2698 12.1773C17.3166 12.1573 17.367 12.147 17.418 12.1472H18.3727V9.79269C18.3742 9.68991 18.4157 9.59177 18.4884 9.51909C18.5611 9.44641 18.6592 9.40489 18.762 9.40335H19.86C19.9627 9.40489 20.0607 9.44634 20.1334 9.51893C20.2061 9.59151 20.2477 9.68953 20.2493 9.79223V12.1467H22.1214C22.2211 12.1525 22.315 12.1959 22.3841 12.2681C22.4532 12.3404 22.4923 12.4361 22.4937 12.536V13.4907C22.4921 13.5934 22.4507 13.6915 22.3781 13.7642C22.3055 13.8368 22.2075 13.8784 22.1048 13.8801H20.2323L20.2493 16.9418V16.9413ZM29.7377 15.8866L28.1481 11.7703L26.5608 15.8866H29.7377ZM28.9429 9.54664C29.0061 9.54207 29.0696 9.5506 29.1294 9.57169C29.1891 9.59278 29.2439 9.62598 29.2903 9.6692C29.3834 9.77702 29.4538 9.90235 29.4981 10.0378L33.0348 19.1654C33.0445 19.1976 33.0491 19.2313 33.0491 19.2649C33.0477 19.3681 33.0061 19.4667 32.9331 19.5398C32.8602 19.6128 32.7616 19.6545 32.6584 19.6561H31.618C31.5457 19.6637 31.4726 19.6567 31.4029 19.6357C31.3333 19.6147 31.2686 19.5799 31.2126 19.5335C31.1445 19.465 31.0908 19.3835 31.0545 19.2939L30.4302 17.6924H25.8682L25.2439 19.2939C25.2077 19.3835 25.1539 19.465 25.0859 19.5335C25.0299 19.58 24.9652 19.6148 24.8956 19.6359C24.8259 19.6569 24.7528 19.6638 24.6804 19.6561H23.64C23.5372 19.6538 23.4392 19.6118 23.3667 19.5389C23.2942 19.466 23.2528 19.3678 23.2511 19.2649C23.2504 19.2311 23.2554 19.1975 23.2659 19.1654L26.8022 10.0378C26.8464 9.90235 26.9174 9.77702 27.0105 9.6692C27.0567 9.62574 27.1114 9.59239 27.1712 9.57129C27.2311 9.55019 27.2946 9.54179 27.3579 9.54664H28.9429ZM39.2256 16.305C39.2546 16.0367 39.2546 15.7661 39.2256 15.4978C39.1694 14.8739 38.9758 14.4205 38.6492 14.1478C38.3132 13.8689 37.8877 13.7211 37.4512 13.7317C37.016 13.7179 36.5913 13.8662 36.2592 14.1478C36.0921 14.3009 35.9569 14.4855 35.8616 14.6912C35.7662 14.8968 35.7125 15.1192 35.7035 15.3457C35.6814 15.5279 35.6717 15.7114 35.6745 15.8949C35.6718 16.0788 35.6814 16.2622 35.7035 16.4442C35.7289 16.8957 35.9279 17.3201 36.2592 17.6283C36.5868 17.9186 37.013 18.0734 37.4512 18.0605C37.8877 18.0711 38.3132 17.9233 38.6492 17.6444C38.9758 17.3721 39.1694 16.921 39.2256 16.2944V16.305ZM37.888 19.7999C37.6186 19.8026 37.3499 19.7739 37.0872 19.7142C36.8726 19.6663 36.6634 19.5967 36.4629 19.5064C36.3035 19.4261 36.1534 19.3284 36.0155 19.2152C35.9076 19.1297 35.8068 19.0358 35.7141 18.9341V22.0087C35.7125 22.1119 35.6707 22.2105 35.5977 22.2835C35.5247 22.3565 35.4262 22.3982 35.323 22.3999H34.2268C34.1235 22.3986 34.0247 22.357 33.9517 22.2839C33.8786 22.2108 33.837 22.1121 33.8356 22.0087V12.536C33.8381 12.4333 33.8802 12.3355 33.9531 12.263C34.026 12.1905 34.1241 12.149 34.2268 12.1472H35.323C35.4258 12.1488 35.524 12.1902 35.5969 12.2627C35.6699 12.3352 35.7119 12.4332 35.7141 12.536V12.8692C35.9271 12.6335 36.1843 12.442 36.4712 12.3057C36.6717 12.2152 36.8808 12.1454 37.0955 12.0974C37.3582 12.0378 37.6269 12.0092 37.8963 12.0121C38.3473 12.0056 38.794 12.1015 39.2025 12.2927C39.5822 12.4724 39.9213 12.7282 40.1987 13.0438C40.4778 13.364 40.6983 13.7308 40.8502 14.1275C41.0082 14.5357 41.0985 14.967 41.1161 15.4047C41.1266 15.548 41.1308 15.7166 41.1308 15.9101C41.1308 16.1037 41.1308 16.2723 41.1161 16.4156C41.0983 16.8531 41.0085 17.2846 40.8502 17.6928C40.6983 18.0895 40.4777 18.4563 40.1987 18.7765C39.9212 19.0921 39.5823 19.3476 39.2025 19.5275C38.7908 19.7171 38.3412 19.8103 37.888 19.7999ZM47.3883 16.305C47.4174 16.0367 47.4174 15.7661 47.3883 15.4978C47.3303 14.8739 47.1391 14.4205 46.8101 14.1478C46.4745 13.8682 46.0487 13.7204 45.6121 13.7317C45.177 13.7179 44.7522 13.8662 44.4201 14.1478C44.253 14.3009 44.1178 14.4855 44.0225 14.6912C43.9271 14.8968 43.8734 15.1192 43.8645 15.3457C43.8435 15.528 43.8338 15.7114 43.8354 15.8949C43.8336 16.0788 43.8433 16.2622 43.8645 16.4442C43.8898 16.8957 44.0889 17.3201 44.4201 17.6283C44.7479 17.9189 45.1742 18.0735 45.6121 18.0605C46.0487 18.0718 46.4745 17.9239 46.8101 17.6444C47.1391 17.3721 47.3303 16.921 47.3883 16.2944V16.305ZM46.0448 19.7893C45.7754 19.7921 45.5067 19.7635 45.244 19.704C45.0294 19.6557 44.8202 19.5859 44.6196 19.4958C44.4584 19.4187 44.3063 19.3238 44.1663 19.2128C44.0578 19.1273 43.9562 19.0334 43.8626 18.9318V22.0087C43.8628 22.06 43.8526 22.1108 43.8326 22.158C43.8125 22.2052 43.7831 22.2479 43.7461 22.2833C43.711 22.3203 43.6687 22.3496 43.6219 22.3697C43.5751 22.3897 43.5247 22.4 43.4737 22.3999H42.3753C42.2723 22.3982 42.174 22.3564 42.1014 22.2833C42.0287 22.2103 41.9875 22.1117 41.9864 22.0087V12.536C41.9876 12.4333 42.029 12.335 42.1016 12.2624C42.1743 12.1897 42.2725 12.1483 42.3753 12.1472H43.4737C43.5761 12.1496 43.6736 12.1914 43.746 12.2638C43.8184 12.3362 43.8602 12.4337 43.8626 12.536V12.8692C43.9562 12.7678 44.058 12.6733 44.1663 12.5881C44.3063 12.4775 44.4584 12.3821 44.6196 12.3052C44.8203 12.2152 45.0294 12.1456 45.244 12.0974C45.5067 12.0379 45.7754 12.0093 46.0448 12.0121C46.4965 12.0056 46.9439 12.1015 47.3533 12.2927C47.7325 12.4735 48.0713 12.729 48.3495 13.0438C48.6278 13.3641 48.8476 13.7309 48.9987 14.1275C49.1572 14.5357 49.247 14.967 49.265 15.4047C49.2751 15.548 49.2793 15.7166 49.2793 15.9101C49.2793 16.1037 49.2793 16.2723 49.265 16.4156C49.2471 16.8531 49.1571 17.2846 48.9987 17.6928C48.8475 18.0893 48.6278 18.4562 48.3495 18.7765C48.0713 19.0913 47.7325 19.3468 47.3533 19.5275C46.944 19.7189 46.4966 19.815 46.0448 19.8086" fill="#050038"/>
</g>
<defs>
<clipPath id="clip0_4_36">
<rect width="50" height="32" fill="white"/>
</clipPath>
</defs>
</svg>
