<svg width="134" height="46" viewBox="0 0 134 46" fill="none" xmlns="http://www.w3.org/2000/svg">
<g clip-path="url(#clip0_11_35)">
<path d="M27.6593 23.1285C27.6713 22.1964 27.9189 21.2825 28.379 20.4719C28.8391 19.6612 29.4968 18.9801 30.2908 18.492C29.7864 17.7715 29.1209 17.1787 28.3473 16.7604C27.5736 16.3422 26.713 16.1101 25.834 16.0826C23.9589 15.8858 22.141 17.2046 21.1854 17.2046C20.2114 17.2046 18.7402 16.1021 17.156 16.1347C16.1312 16.1678 15.1325 16.4658 14.2573 16.9996C13.3819 17.5335 12.6598 18.2849 12.1613 19.1809C10.0017 22.9198 11.6125 28.415 13.6813 31.4374C14.7163 32.9174 15.9259 34.5706 17.5087 34.512C19.0576 34.4477 19.6362 33.5243 21.5057 33.5243C23.358 33.5243 23.9007 34.512 25.5157 34.4746C27.1777 34.4477 28.2248 32.9881 29.2236 31.4941C29.9673 30.4396 30.5395 29.2741 30.9191 28.0408C29.9535 27.6325 29.1295 26.9489 28.5499 26.0753C27.9702 25.2017 27.6604 24.1768 27.6593 23.1285Z" fill="white"/>
<path d="M24.6082 14.0949C25.5144 13.007 25.9609 11.6087 25.8527 10.1971C24.4683 10.3424 23.1894 11.0042 22.2709 12.0503C21.8219 12.5613 21.478 13.1559 21.2589 13.7999C21.0397 14.444 20.9496 15.1249 20.9938 15.8038C21.6863 15.8109 22.3713 15.6608 22.9974 15.3648C23.6235 15.0688 24.1743 14.6346 24.6082 14.0949Z" fill="white"/>
<path d="M47.2391 30.7654H41.9535L40.6842 34.5134H38.4454L43.4518 20.6467H45.7778L50.7843 34.5134H48.5073L47.2391 30.7654ZM42.5009 29.0359H46.6906L44.6253 22.9531H44.5675L42.5009 29.0359Z" fill="white"/>
<path d="M61.5963 29.459C61.5963 32.6007 59.9147 34.6192 57.3772 34.6192C56.7343 34.6528 56.095 34.5047 55.5325 34.192C54.9699 33.8791 54.5069 33.4142 54.1962 32.8504H54.1482V37.8579H52.073V24.4034H54.0817V26.0849H54.1198C54.4448 25.5239 54.9157 25.0614 55.4826 24.7466C56.0494 24.4319 56.691 24.2768 57.339 24.2976C59.9048 24.2976 61.5963 26.326 61.5963 29.459ZM59.4633 29.459C59.4633 27.4121 58.4055 26.0664 56.7916 26.0664C55.206 26.0664 54.1395 27.4405 54.1395 29.459C54.1395 31.496 55.206 32.8602 56.7916 32.8602C58.4055 32.8602 59.4633 31.5243 59.4633 29.459Z" fill="white"/>
<path d="M72.7247 29.459C72.7247 32.6007 71.0431 34.6192 68.5056 34.6192C67.8628 34.6528 67.2235 34.5047 66.6609 34.1919C66.0983 33.8791 65.6352 33.4142 65.3246 32.8504H65.2766V37.8579H63.2014V24.4034H65.21V26.0849H65.2483C65.5731 25.5239 66.0441 25.0613 66.6109 24.7466C67.1778 24.4319 67.8193 24.2768 68.4673 24.2976C71.0333 24.2976 72.7247 26.326 72.7247 29.459ZM70.5917 29.459C70.5917 27.4121 69.5338 26.0664 67.92 26.0664C66.3344 26.0664 65.2679 27.4405 65.2679 29.459C65.2679 31.496 66.3344 32.8602 67.92 32.8602C69.5339 32.8602 70.5917 31.5243 70.5917 29.459Z" fill="white"/>
<path d="M80.0783 30.6499C80.2321 32.025 81.5679 32.9279 83.3934 32.9279C85.1425 32.9279 86.4009 32.025 86.4009 30.7851C86.4009 29.7087 85.6419 29.0643 83.8449 28.6226L82.0477 28.1897C79.5014 27.5747 78.3193 26.3838 78.3193 24.4514C78.3193 22.0589 80.4043 20.4155 83.365 20.4155C86.2951 20.4155 88.3038 22.0589 88.3715 24.4514H86.2766C86.1512 23.0676 85.0073 22.2323 83.3356 22.2323C81.6638 22.2323 80.5199 23.0775 80.5199 24.3076C80.5199 25.2879 81.2506 25.8648 83.0379 26.3063L84.5656 26.6815C87.4107 27.3543 88.5928 28.4972 88.5928 30.5255C88.5928 33.1198 86.5264 34.7446 83.2395 34.7446C80.1644 34.7446 78.0881 33.1579 77.954 30.6498L80.0783 30.6499Z" fill="white"/>
<path d="M93.0723 22.011V24.4035H94.9949V26.0469H93.0723V31.6203C93.0723 32.4862 93.4567 32.8897 94.3016 32.8897C94.5305 32.8857 94.7585 32.8697 94.9846 32.8417V34.4753C94.605 34.5463 94.2188 34.5784 93.8317 34.5712C91.7852 34.5712 90.9869 33.8024 90.9869 31.8417V26.0469H89.517V24.4035H90.9869V22.011H93.0723Z" fill="white"/>
<path d="M96.1068 29.459C96.1068 26.2781 97.981 24.2792 100.902 24.2792C103.833 24.2792 105.698 26.278 105.698 29.459C105.698 32.6487 103.843 34.6389 100.902 34.6389C97.9623 34.6389 96.1068 32.6487 96.1068 29.459ZM103.584 29.459C103.584 27.277 102.583 25.9891 100.902 25.9891C99.2205 25.9891 98.222 27.2868 98.222 29.459C98.222 31.6499 99.2205 32.9279 100.902 32.9279C102.583 32.9279 103.584 31.6499 103.584 29.459Z" fill="white"/>
<path d="M107.408 24.4036H109.388V26.1243H109.435C109.569 25.5869 109.885 25.1119 110.328 24.7794C110.77 24.4467 111.314 24.2767 111.868 24.2978C112.107 24.297 112.345 24.3229 112.579 24.3752V26.3163C112.276 26.2241 111.962 26.1816 111.646 26.1908C111.345 26.1786 111.044 26.2318 110.765 26.3467C110.486 26.4615 110.235 26.6355 110.03 26.8565C109.824 27.0775 109.669 27.3403 109.575 27.6269C109.481 27.9135 109.449 28.2171 109.484 28.5169V34.5135H107.408V24.4036Z" fill="white"/>
<path d="M122.148 31.5441C121.868 33.3794 120.082 34.6389 117.794 34.6389C114.854 34.6389 113.028 32.6683 113.028 29.5071C113.028 26.3359 114.863 24.2792 117.707 24.2792C120.504 24.2792 122.263 26.2006 122.263 29.2661V29.977H115.123V30.1024C115.09 30.4745 115.137 30.8493 115.26 31.202C115.382 31.5548 115.579 31.8772 115.836 32.148C116.093 32.4189 116.406 32.6319 116.751 32.7729C117.097 32.9139 117.47 32.9798 117.843 32.966C118.333 33.012 118.825 32.8985 119.246 32.6422C119.667 32.386 119.993 32.0009 120.178 31.5441H122.148ZM115.133 28.5266H120.187C120.205 28.1921 120.155 27.8574 120.038 27.5433C119.922 27.2293 119.741 26.9428 119.508 26.7019C119.275 26.461 118.995 26.2708 118.685 26.1432C118.375 26.0157 118.042 25.9536 117.707 25.9607C117.369 25.9588 117.034 26.0236 116.721 26.1518C116.409 26.2799 116.125 26.4687 115.885 26.7073C115.646 26.9458 115.456 27.2294 115.327 27.5417C115.198 27.8539 115.132 28.1887 115.133 28.5267V28.5266Z" fill="white"/>
<path d="M42.2407 10.2089C42.6757 10.1778 43.1122 10.2435 43.5189 10.4014C43.9254 10.5593 44.2919 10.8055 44.5918 11.1223C44.8917 11.4389 45.1177 11.8182 45.2532 12.2329C45.3887 12.6474 45.4306 13.087 45.3758 13.5197C45.3758 15.6483 44.2253 16.8719 42.2407 16.8719H39.8339V10.2089H42.2407ZM40.8687 15.9296H42.125C42.4359 15.9482 42.7471 15.8972 43.0357 15.7804C43.3244 15.6636 43.5834 15.4839 43.7939 15.2543C44.0044 15.0247 44.161 14.7512 44.2524 14.4535C44.3439 14.1557 44.3677 13.8414 44.3223 13.5332C44.3645 13.2263 44.3381 12.914 44.2453 12.6184C44.1526 12.3229 43.9955 12.0515 43.7855 11.8238C43.5755 11.5961 43.3177 11.4176 43.0306 11.3012C42.7435 11.1848 42.4343 11.1333 42.125 11.1506H40.8687V15.9296Z" fill="white"/>
<path d="M46.5444 14.3556C46.5128 14.0252 46.5507 13.6918 46.6554 13.3768C46.7602 13.0618 46.9297 12.7722 47.1529 12.5266C47.3761 12.281 47.6483 12.0847 47.9519 11.9503C48.2554 11.8161 48.5837 11.7466 48.9157 11.7466C49.2477 11.7466 49.576 11.8161 49.8795 11.9503C50.1831 12.0847 50.4552 12.281 50.6785 12.5266C50.9017 12.7722 51.0712 13.0618 51.176 13.3768C51.2808 13.6918 51.3186 14.0252 51.287 14.3556C51.3192 14.6864 51.2819 15.0202 51.1773 15.3358C51.0728 15.6513 50.9034 15.9414 50.6801 16.1875C50.4568 16.4337 50.1845 16.6303 49.8806 16.7649C49.5767 16.8995 49.2481 16.969 48.9157 16.969C48.5834 16.969 48.2547 16.8995 47.9509 16.7649C47.6469 16.6303 47.3746 16.4337 47.1512 16.1875C46.928 15.9414 46.7586 15.6513 46.654 15.3358C46.5495 15.0202 46.5122 14.6864 46.5444 14.3556ZM50.2663 14.3556C50.2663 13.2657 49.7766 12.6283 48.9173 12.6283C48.0548 12.6283 47.5695 13.2657 47.5695 14.3556C47.5695 15.4543 48.0548 16.0868 48.9173 16.0868C49.7767 16.0868 50.2663 15.45 50.2663 14.3556Z" fill="white"/>
<path d="M57.5915 16.872H56.5621L55.5229 13.1686H55.4444L54.4095 16.872H53.3899L52.0039 11.8437H53.0104L53.9112 15.6806H53.9853L55.0191 11.8437H55.971L57.0049 15.6806H57.0833L57.9797 11.8437H58.9721L57.5915 16.872Z" fill="white"/>
<path d="M60.1372 11.8437H61.0925V12.6425H61.1667C61.2924 12.3556 61.5046 12.1151 61.7736 11.9545C62.0425 11.7939 62.3549 11.7213 62.6671 11.7467C62.9118 11.7282 63.1575 11.7652 63.386 11.8546C63.6144 11.944 63.8198 12.0837 63.987 12.2633C64.1541 12.4429 64.2787 12.6579 64.3515 12.8922C64.4244 13.1265 64.4434 13.3741 64.4075 13.6168V16.8719H63.4152V13.866C63.4152 13.058 63.0641 12.6561 62.3302 12.6561C62.164 12.6484 61.9982 12.6767 61.8441 12.739C61.6899 12.8013 61.5511 12.8963 61.437 13.0173C61.323 13.1383 61.2365 13.2826 61.1834 13.4402C61.1303 13.5978 61.112 13.765 61.1296 13.9304V16.872H60.1372V11.8437Z" fill="white"/>
<path d="M65.9895 9.8808H66.9818V16.872H65.9895V9.8808Z" fill="white"/>
<path d="M68.3615 14.3557C68.33 14.0253 68.3678 13.6919 68.4726 13.3769C68.5774 13.0619 68.7469 12.7723 68.9702 12.5266C69.1935 12.281 69.4656 12.0847 69.7692 11.9503C70.0728 11.8161 70.4011 11.7466 70.7331 11.7466C71.0651 11.7466 71.3934 11.8161 71.6969 11.9503C72.0006 12.0847 72.2727 12.281 72.496 12.5266C72.7192 12.7723 72.8888 13.0619 72.9936 13.3769C73.0984 13.6919 73.1362 14.0253 73.1046 14.3557C73.1368 14.6865 73.0994 15.0203 72.9949 15.3359C72.8904 15.6513 72.7209 15.9415 72.4976 16.1876C72.2742 16.4338 72.0019 16.6304 71.698 16.7649C71.3941 16.8996 71.0655 16.9691 70.7331 16.9691C70.4008 16.9691 70.0721 16.8996 69.7682 16.7649C69.4642 16.6304 69.1919 16.4338 68.9685 16.1876C68.7452 15.9415 68.5758 15.6513 68.4713 15.3359C68.3668 15.0203 68.3293 14.6865 68.3615 14.3557ZM72.0834 14.3557C72.0834 13.2658 71.5937 12.6283 70.7345 12.6283C69.8718 12.6283 69.3866 13.2658 69.3866 14.3557C69.3866 15.4544 69.8719 16.0868 70.7345 16.0868C71.5937 16.0868 72.0834 15.4501 72.0834 14.3557Z" fill="white"/>
<path d="M74.1482 15.45C74.1482 14.5448 74.8222 14.0231 76.0184 13.9489L77.3805 13.8705V13.4363C77.3805 12.9053 77.0293 12.6055 76.351 12.6055C75.797 12.6055 75.4132 12.8088 75.3031 13.1643H74.3423C74.4437 12.3006 75.2562 11.7466 76.3968 11.7466C77.6574 11.7466 78.3684 12.3742 78.3684 13.4363V16.872H77.4131V16.1654H77.3346C77.1753 16.4188 76.9515 16.6255 76.6862 16.7642C76.4208 16.9029 76.1234 16.9686 75.8243 16.9549C75.6133 16.9768 75.3999 16.9543 75.198 16.8887C74.9962 16.8232 74.8103 16.7161 74.6524 16.5743C74.4944 16.4325 74.368 16.2592 74.2812 16.0655C74.1943 15.8719 74.149 15.6622 74.1482 15.45ZM77.3805 15.0203V14.5999L76.1525 14.6785C75.4601 14.7248 75.146 14.9603 75.146 15.4036C75.146 15.8562 75.5386 16.1195 76.0784 16.1195C76.2366 16.1355 76.3964 16.1196 76.5483 16.0726C76.7001 16.0256 76.841 15.9485 76.9625 15.8459C77.0839 15.7434 77.1836 15.6175 77.2553 15.4756C77.3272 15.3337 77.3697 15.1789 77.3805 15.0203Z" fill="white"/>
<path d="M79.6733 14.3557C79.6733 12.7668 80.4902 11.7602 81.7606 11.7602C82.0748 11.7458 82.3867 11.8211 82.6598 11.9772C82.9328 12.1335 83.1558 12.3642 83.3025 12.6424H83.3767V9.8808H84.369V16.872H83.4182V16.0776H83.3396C83.1815 16.3538 82.9508 16.5817 82.6724 16.7364C82.3941 16.891 82.0787 16.9665 81.7606 16.9548C80.4814 16.9549 79.6733 15.9483 79.6733 14.3557ZM80.6984 14.3557C80.6984 15.4222 81.2012 16.0639 82.042 16.0639C82.8784 16.0639 83.3953 15.4129 83.3953 14.36C83.3953 13.312 82.873 12.6518 82.042 12.6518C81.2066 12.6518 80.6984 13.2979 80.6984 14.3557Z" fill="white"/>
<path d="M88.474 14.3556C88.4423 14.0252 88.4802 13.6918 88.585 13.3768C88.6898 13.0618 88.8592 12.7722 89.0825 12.5266C89.3057 12.281 89.5779 12.0847 89.8814 11.9503C90.185 11.8161 90.5133 11.7466 90.8452 11.7466C91.1772 11.7466 91.5055 11.8161 91.8091 11.9503C92.1126 12.0847 92.3847 12.281 92.6081 12.5266C92.8313 12.7722 93.0008 13.0618 93.1058 13.3768C93.21 13.6918 93.2482 14.0252 93.2166 14.3556C93.2491 14.6864 93.211 15.0202 93.1068 15.3358C93.0023 15.6513 92.833 15.9414 92.6096 16.1875C92.3863 16.4337 92.114 16.6303 91.8101 16.7649C91.5063 16.8995 91.1776 16.969 90.8452 16.969C90.5129 16.969 90.1843 16.8995 89.8803 16.7649C89.5765 16.6303 89.3041 16.4337 89.0808 16.1875C88.8575 15.9414 88.6881 15.6513 88.5836 15.3358C88.4791 15.0202 88.4418 14.6864 88.474 14.3556ZM92.1958 14.3556C92.1958 13.2657 91.7062 12.6283 90.8469 12.6283C89.9844 12.6283 89.4991 13.2657 89.4991 14.3556C89.4991 15.4543 89.9844 16.0868 90.8469 16.0868C91.7062 16.0868 92.1958 15.45 92.1958 14.3556Z" fill="white"/>
<path d="M94.5491 11.8437H95.5048V12.6425H95.5792C95.7048 12.3556 95.917 12.1151 96.1859 11.9545C96.4548 11.7939 96.7675 11.7213 97.0792 11.7467C97.324 11.7282 97.5697 11.7652 97.7986 11.8546C98.0266 11.944 98.2322 12.0837 98.3997 12.2633C98.5663 12.4429 98.691 12.6579 98.7636 12.8922C98.8371 13.1265 98.8557 13.3741 98.8203 13.6168V16.8719H97.8274V13.866C97.8274 13.058 97.4766 12.6561 96.7424 12.6561C96.5767 12.6484 96.4102 12.6767 96.2566 12.739C96.1022 12.8013 95.9635 12.8963 95.8491 13.0173C95.7355 13.1383 95.649 13.2826 95.5959 13.4402C95.5429 13.5978 95.5243 13.765 95.542 13.9304V16.872H94.5491V11.8437Z" fill="white"/>
<path d="M104.427 10.5917V11.8666H105.517V12.7024H104.427V15.288C104.427 15.8147 104.645 16.0453 105.138 16.0453C105.264 16.0449 105.391 16.0373 105.517 16.0225V16.849C105.339 16.8809 105.157 16.8978 104.977 16.8997C103.873 16.8997 103.434 16.5115 103.434 15.5421V12.7024H102.636V11.8665H103.434V10.5917H104.427Z" fill="white"/>
<path d="M106.872 9.8808H107.856V12.6517H107.934C108.066 12.3622 108.284 12.1203 108.559 11.9591C108.833 11.7979 109.15 11.7253 109.468 11.751C109.711 11.7377 109.954 11.7784 110.18 11.87C110.406 11.9616 110.609 12.1019 110.774 12.281C110.94 12.46 111.064 12.6734 111.137 12.9058C111.211 13.1382 111.231 13.384 111.2 13.6255V16.872H110.206V13.8704C110.206 13.0672 109.832 12.6605 109.131 12.6605C108.96 12.6465 108.788 12.67 108.627 12.7291C108.467 12.7884 108.321 12.882 108.201 13.0035C108.08 13.1249 107.988 13.2712 107.93 13.4321C107.872 13.5931 107.85 13.7648 107.864 13.9352V16.872H106.872V9.8808Z" fill="white"/>
<path d="M116.984 15.5144C116.849 15.974 116.557 16.3715 116.158 16.6374C115.76 16.9033 115.281 17.0208 114.805 16.9691C114.474 16.9779 114.145 16.9144 113.84 16.7832C113.536 16.652 113.263 16.4561 113.043 16.2091C112.821 15.9622 112.658 15.6702 112.561 15.3532C112.464 15.0363 112.437 14.702 112.483 14.3738C112.438 14.0445 112.465 13.7096 112.562 13.3917C112.659 13.0738 112.822 12.7804 113.042 12.5313C113.262 12.2822 113.532 12.0832 113.836 11.9478C114.139 11.8125 114.469 11.744 114.801 11.7468C116.199 11.7468 117.043 12.7026 117.043 14.2816V14.6278H113.493V14.6835C113.478 14.868 113.501 15.0538 113.561 15.2288C113.622 15.4038 113.719 15.5643 113.844 15.6999C113.971 15.8355 114.123 15.9433 114.294 16.0163C114.464 16.0894 114.647 16.126 114.832 16.124C115.07 16.1525 115.31 16.1098 115.523 16.0012C115.736 15.8927 115.912 15.7232 116.028 15.5144H116.984ZM113.493 13.8939H116.033C116.046 13.7252 116.023 13.5557 115.966 13.3964C115.909 13.2369 115.819 13.0912 115.702 12.9686C115.586 12.8459 115.445 12.749 115.288 12.684C115.133 12.6191 114.965 12.5875 114.795 12.5913C114.624 12.5892 114.454 12.6215 114.295 12.6862C114.135 12.7508 113.991 12.8468 113.869 12.9681C113.748 13.0895 113.652 13.234 113.587 13.393C113.523 13.552 113.491 13.7223 113.493 13.8939Z" fill="white"/>
<path d="M126.18 0.924683H7.4445C3.59001 0.924683 0.465332 4.04936 0.465332 7.90385V37.6816C0.465332 41.5361 3.59001 44.6608 7.4445 44.6608H126.18C130.034 44.6608 133.159 41.5361 133.159 37.6816V7.90385C133.159 4.04936 130.034 0.924683 126.18 0.924683Z" stroke="#A6A6A6" stroke-width="0.930556"/>
</g>
<defs>
<clipPath id="clip0_11_35">
<rect width="134" height="45" fill="white" transform="translate(0 0.292725)"/>
</clipPath>
</defs>
</svg>
