<svg width="152" height="46" viewBox="0 0 152 46" fill="none" xmlns="http://www.w3.org/2000/svg">
<g clip-path="url(#clip0_11_62)">
<path d="M53.6182 11.8748C53.6182 12.8124 53.3406 13.559 52.7845 14.1159C52.1529 14.7781 51.3298 15.1094 50.3179 15.1094C49.3488 15.1094 48.5249 14.7737 47.8473 14.1015C47.1685 13.4296 46.8298 12.5965 46.8298 11.6024C46.8298 10.608 47.1685 9.77537 47.8473 9.10304C48.5249 8.43119 49.3488 8.09503 50.3179 8.09503C50.7987 8.09503 51.2591 8.18903 51.6962 8.37658C52.1332 8.56457 52.4839 8.81411 52.7462 9.12666L52.156 9.71716C51.7115 9.18607 51.0995 8.92076 50.3179 8.92076C49.6111 8.92076 49 9.16907 48.4842 9.66602C47.9683 10.1636 47.7106 10.8087 47.7106 11.6024C47.7106 12.3963 47.9683 13.0414 48.4842 13.5389C49 14.0359 49.6111 14.2842 50.3179 14.2842C51.0677 14.2842 51.6927 14.0345 52.1931 13.5346C52.518 13.2088 52.7059 12.7561 52.7561 12.1746H50.3179V11.3682H53.5715C53.6029 11.5435 53.6182 11.7118 53.6182 11.8748Z" fill="white"/>
<path d="M53.619 11.8748H53.5071C53.5061 12.791 53.2386 13.5025 52.7061 14.0368L52.7049 14.0377L52.7045 14.0385C52.093 14.678 51.307 14.9962 50.3186 14.9975C49.3754 14.9962 48.5859 14.6745 47.9267 14.0223C47.269 13.3688 46.9436 12.5711 46.9424 11.6024C46.9436 10.6334 47.269 9.83607 47.9267 9.18305C48.5859 8.53044 49.3754 8.20827 50.3186 8.20693C50.785 8.20693 51.2292 8.29791 51.6528 8.4793C52.0767 8.66203 52.4116 8.9015 52.6612 9.19883L52.7469 9.12665L52.6678 9.04754L52.0776 9.63849L52.1567 9.71716L52.2429 9.64554C51.7777 9.08816 51.1248 8.80717 50.3186 8.80885C49.5856 8.80795 48.9409 9.0698 48.4076 9.58567C47.8691 10.1032 47.5986 10.7846 47.5994 11.6024C47.5986 12.4204 47.8691 13.1017 48.4076 13.6193C48.9409 14.1352 49.5856 14.397 50.3186 14.3961C51.0932 14.3975 51.7533 14.1347 52.273 13.6137C52.6201 13.2657 52.8168 12.7836 52.8684 12.1842L52.8788 12.0627H50.4305V11.4801H53.5721V11.3682L53.4619 11.3879C53.4926 11.5575 53.5071 11.7187 53.5071 11.8748H53.619H53.7309C53.7309 11.7047 53.7151 11.53 53.6823 11.3481L53.6657 11.2563H50.2067V12.1746V12.2865H52.7568V12.1746L52.6454 12.165C52.5961 12.7281 52.4168 13.1521 52.1147 13.4554C51.6339 13.9345 51.0438 14.171 50.3186 14.1723C49.6381 14.1714 49.0606 13.9371 48.5628 13.4585C48.0698 12.9815 47.8244 12.3727 47.8232 11.6024C47.8244 10.8323 48.0698 10.2234 48.5628 9.74646C49.0606 9.26787 49.6381 9.03355 50.3186 9.03265C51.0753 9.03444 51.6467 9.28443 52.0711 9.78935L52.1498 9.88288L52.826 9.20576L52.8985 9.13325L52.8325 9.05492C52.5576 8.72716 52.1913 8.46699 51.741 8.27385C51.2899 8.08014 50.8139 7.98313 50.3186 7.98313C49.3238 7.98223 48.4653 8.33192 47.7689 9.02392C47.07 9.71458 46.7178 10.5827 46.7186 11.6024C46.7178 12.6218 47.07 13.4904 47.7694 14.1815C48.4653 14.8731 49.3238 15.2223 50.3186 15.2213C51.3546 15.2223 52.214 14.8782 52.8661 14.1932L52.7853 14.1159L52.8644 14.195C53.444 13.6158 53.7316 12.8334 53.7309 11.8748H53.619Z" fill="white"/>
<path d="M58.7778 9.07028H55.7202V11.1991H58.4775V12.0059H55.7202V14.1348H58.7778V14.9596H54.8582V8.24545H58.7778V9.07028Z" fill="white"/>
<path d="M58.7767 9.07027V8.95837H55.6071V11.311H58.3645V11.8937L55.6071 11.894V14.2467H58.6648V14.8477H54.9689V8.35735H58.6648V9.07027H58.7767V8.95837V9.07027H58.8886V8.24545V8.13354H54.7451V15.0715H58.8886V14.1348V14.0229H55.8309V12.1178H58.5883V11.1991V11.0872H55.8309V9.18218H58.8886V9.07027H58.7767Z" fill="white"/>
<path d="M62.416 14.9596H61.5527V9.07028H59.6774V8.24545H64.2912V9.07028H62.416V14.9596Z" fill="white"/>
<path d="M62.415 14.9596V14.8477H61.6635V8.95837H59.7883V8.35735H64.1783V8.95837H62.3031V14.9596H62.415V14.8477V14.9596H62.5269V9.18218H64.4021V8.24545V8.13354H59.5645V9.07027V9.18218H61.4397V15.0715H62.415H62.5269V14.9596H62.415Z" fill="white"/>
<path d="M67.6292 14.9596V8.24545H68.4916V14.9596H67.6292Z" fill="white"/>
<path d="M67.6281 14.9596H67.74V8.35735H68.3787V14.8477H67.6281V14.9596H67.74H67.6281V15.0715H68.4906H68.6025V8.13354H67.6281H67.5162V15.0715H67.6281V14.9596Z" fill="white"/>
<path d="M72.3184 14.9596H71.455V9.07028H69.5798V8.24545H74.1935V9.07028H72.3184V14.9596Z" fill="white"/>
<path d="M72.3173 14.9596V14.8477H71.5659V8.95837H69.6907V8.35735H74.0806V8.95837H72.2054V14.9596H72.3173V14.8477V14.9596H72.4292V9.18218H74.3044V8.24545V8.13354H69.4669V9.07027V9.18218H71.3421V15.0715H72.3173H72.4292V14.9596H72.3173Z" fill="white"/>
<path d="M78.6406 13.5298C79.1375 14.0329 79.7456 14.2842 80.4646 14.2842C81.1837 14.2842 81.7922 14.0329 82.2884 13.5298C82.7858 13.0267 83.0349 12.3835 83.0349 11.6024C83.0349 10.8214 82.7858 10.1783 82.2884 9.6752C81.7922 9.17209 81.1837 8.92076 80.4646 8.92076C79.7456 8.92076 79.1375 9.17209 78.6406 9.6752C78.1444 10.1783 77.8953 10.8214 77.8953 11.6024C77.8953 12.3835 78.1444 13.0267 78.6406 13.5298ZM82.9265 14.0919C82.2664 14.7707 81.4455 15.1094 80.4646 15.1094C79.4828 15.1094 78.6624 14.7707 78.0037 14.0919C77.3431 13.4139 77.0145 12.5838 77.0145 11.6024C77.0145 10.6211 77.3431 9.79103 78.0037 9.11311C78.6624 8.43421 79.4828 8.09503 80.4646 8.09503C81.4403 8.09503 82.259 8.436 82.9221 9.11748C83.5844 9.79896 83.9157 10.6272 83.9157 11.6024C83.9157 12.5838 83.5851 13.4139 82.9265 14.0919Z" fill="white"/>
<path d="M78.6414 13.5298L78.5617 13.6085C79.0772 14.1317 79.7202 14.3975 80.4655 14.3961C81.2103 14.3975 81.8542 14.1317 82.3686 13.6085C82.8875 13.0848 83.1484 12.4072 83.1477 11.6024C83.1484 10.7978 82.8875 10.1202 82.3686 9.59653C81.8542 9.07327 81.2103 8.80751 80.4655 8.80885C79.7202 8.80751 79.0772 9.07327 78.5617 9.59653C78.0442 10.1202 77.7828 10.7978 77.7842 11.6024C77.7828 12.4072 78.0442 13.0848 78.5617 13.6085L78.6414 13.5298L78.7209 13.4511C78.2463 12.968 78.0088 12.3604 78.008 11.6024C78.0088 10.8446 78.2463 10.237 78.7209 9.75382C79.1999 9.27089 79.7721 9.034 80.4655 9.03265C81.1582 9.034 81.7317 9.27089 82.2095 9.75382C82.6851 10.237 82.9225 10.8446 82.9234 11.6024C82.9225 12.3604 82.6851 12.968 82.2095 13.4511C81.7317 13.9341 81.1582 14.171 80.4655 14.1723C79.7721 14.171 79.1999 13.9341 78.7209 13.4511L78.6414 13.5298ZM82.9273 14.0919L82.8473 14.0141C82.2056 14.6715 81.421 14.9962 80.4655 14.9975C79.5094 14.9962 78.7248 14.6715 78.0844 14.0141L78.0814 14.0106L78.0844 14.0141C77.4441 13.3545 77.1281 12.5589 77.1272 11.6024C77.1281 10.6461 77.4441 9.85053 78.0844 9.19088C78.7248 8.53346 79.5094 8.20827 80.4655 8.20693C81.4149 8.20827 82.1977 8.5348 82.8429 9.1957C83.4855 9.85836 83.8033 10.6527 83.8046 11.6024C83.8033 12.5589 83.4863 13.3545 82.8473 14.0141L82.9273 14.0919L83.0078 14.1697C83.6861 13.4729 84.0292 12.6087 84.0284 11.6024C84.0292 10.6019 83.6848 9.73956 83.0033 9.03969C82.3214 8.33718 81.4673 7.9819 80.4655 7.98313C79.4583 7.9819 78.6016 8.3355 77.9241 9.03533V9.03488C77.2444 9.73203 76.9025 10.5963 76.9034 11.6024C76.9025 12.6087 77.2444 13.4729 77.9241 14.17L77.9271 14.1732L77.9241 14.1697C78.6016 14.8694 79.4583 15.2223 80.4655 15.2213C81.4721 15.2223 82.3288 14.8694 83.0078 14.1697L82.9273 14.0919Z" fill="white"/>
<path d="M85.1266 14.9596V8.24545H86.1766L89.4397 13.4686H89.4768L89.4397 12.1746V8.24545H90.303V14.9596H89.4024L85.9886 9.48331H85.9514L85.9886 10.7777V14.9596H85.1266Z" fill="white"/>
<path d="M85.1274 14.9596H85.2393V8.35735H86.1152L89.3783 13.5805H89.4776H89.5925L89.5523 12.1729V8.35735H90.1918V14.8477H89.4654L86.0514 9.3714H85.9522H85.8372L85.8774 10.7795V14.8477H85.1274V14.9596H85.2393H85.1274V15.0715H85.9893H86.1012V10.7759L86.0641 9.48028L85.9522 9.48331V9.59521H85.9893V9.48331L85.8945 9.54284L89.3412 15.0715H90.3037H90.4156V8.13354H89.4404H89.3285V12.176L89.3657 13.4716L89.4776 13.4686V13.3567H89.4404V13.4686L89.5353 13.4092L86.2393 8.13354H85.1274H85.0155V15.0715H85.1274V14.9596Z" fill="white"/>
<path d="M120.221 33.9828H122.309V19.9938H120.221V33.9828ZM139.028 25.0329L136.634 31.0979H136.563L134.078 25.0329H131.829L135.554 33.5099L133.431 38.225H135.609L141.35 25.0329H139.028ZM127.187 32.3939C126.501 32.3939 125.548 32.0521 125.548 31.2059C125.548 30.1261 126.736 29.7122 127.761 29.7122C128.681 29.7122 129.111 29.9102 129.67 30.1804C129.508 31.476 128.392 32.3939 127.187 32.3939ZM127.438 24.7269C125.927 24.7269 124.361 25.3931 123.713 26.8688L125.566 27.6425C125.962 26.8688 126.7 26.6166 127.474 26.6166C128.554 26.6166 129.651 27.2648 129.67 28.4166V28.5604C129.291 28.3445 128.482 28.0206 127.492 28.0206C125.494 28.0206 123.46 29.1182 123.46 31.17C123.46 33.0417 125.098 34.2478 126.933 34.2478C128.338 34.2478 129.111 33.6178 129.598 32.88H129.67V33.9597H131.685V28.5962C131.685 26.1131 129.832 24.7269 127.438 24.7269ZM114.533 26.7359H111.564V21.9408H114.533C116.094 21.9408 116.981 23.2333 116.981 24.3383C116.981 25.4223 116.094 26.7359 114.533 26.7359ZM114.48 19.9938H109.476V33.9828H111.564V28.6829H114.48C116.794 28.6829 119.069 27.0073 119.069 24.3383C119.069 21.6692 116.794 19.9938 114.48 19.9938ZM87.1972 32.3965C85.7547 32.3965 84.5469 31.1887 84.5469 29.53C84.5469 27.8537 85.7547 26.6275 87.1972 26.6275C88.6213 26.6275 89.739 27.8537 89.739 29.53C89.739 31.1887 88.6213 32.3965 87.1972 32.3965ZM89.5948 25.8162H89.5226C89.0541 25.2576 88.1523 24.7527 87.0167 24.7527C84.637 24.7527 82.4558 26.8439 82.4558 29.53C82.4558 32.1981 84.637 34.2713 87.0167 34.2713C88.1523 34.2713 89.0541 33.7664 89.5226 33.1899H89.5948V33.8748C89.5948 35.696 88.6213 36.6694 87.0529 36.6694C85.7731 36.6694 84.9798 35.7497 84.6549 34.9747L82.8343 35.7318C83.3572 36.9936 84.7454 38.5442 87.0529 38.5442C89.5047 38.5442 91.578 37.1016 91.578 33.5864V25.0412H89.5948V25.8162ZM93.02 33.9828H95.111V19.9933H93.02V33.9828ZM98.1939 29.3678C98.1398 27.5288 99.6188 26.5916 100.682 26.5916C101.512 26.5916 102.214 27.006 102.448 27.6014L98.1939 29.3678ZM104.684 27.7815C104.288 26.7175 103.079 24.7527 100.61 24.7527C98.1575 24.7527 96.1209 26.6817 96.1209 29.5121C96.1209 32.1802 98.1398 34.2713 100.844 34.2713C103.025 34.2713 104.288 32.9372 104.811 32.1622L103.188 31.0804C102.648 31.8738 101.908 32.3965 100.844 32.3965C99.7801 32.3965 99.0238 31.9097 98.5361 30.9545L104.9 28.3222L104.684 27.7815ZM53.9834 26.213V28.2321H58.8148C58.6705 29.3678 58.2919 30.197 57.715 30.774C57.0121 31.4773 55.9123 32.2523 53.9834 32.2523C51.0087 32.2523 48.6833 29.8547 48.6833 26.8801C48.6833 23.9055 51.0087 21.5075 53.9834 21.5075C55.5879 21.5075 56.7594 22.1387 57.6249 22.95L59.049 21.5259C57.8413 20.3719 56.2367 19.4886 53.9834 19.4886C49.9089 19.4886 46.4838 22.8058 46.4838 26.8801C46.4838 30.9545 49.9089 34.2713 53.9834 34.2713C56.183 34.2713 57.8413 33.5506 59.1391 32.1981C60.4733 30.864 60.8881 28.9892 60.8881 27.4751C60.8881 27.006 60.8521 26.5737 60.7796 26.213H53.9834ZM66.3808 32.3965C64.9383 32.3965 63.6944 31.2066 63.6944 29.5121C63.6944 27.7994 64.9383 26.6275 66.3808 26.6275C67.8229 26.6275 69.0669 27.7994 69.0669 29.5121C69.0669 31.2066 67.8229 32.3965 66.3808 32.3965ZM66.3808 24.7527C63.7485 24.7527 61.6031 26.7538 61.6031 29.5121C61.6031 32.2523 63.7485 34.2713 66.3808 34.2713C69.0127 34.2713 71.1581 32.2523 71.1581 29.5121C71.1581 26.7538 69.0127 24.7527 66.3808 24.7527ZM76.8025 32.3965C75.3606 32.3965 74.1164 31.2066 74.1164 29.5121C74.1164 27.7994 75.3606 26.6275 76.8025 26.6275C78.2446 26.6275 79.4887 27.7994 79.4887 29.5121C79.4887 31.2066 78.2446 32.3965 76.8025 32.3965ZM76.8025 24.7527C74.1702 24.7527 72.0254 26.7538 72.0254 29.5121C72.0254 32.2523 74.1702 34.2713 76.8025 34.2713C79.4345 34.2713 81.5798 32.2523 81.5798 29.5121C81.5798 26.7538 79.4345 24.7527 76.8025 24.7527Z" fill="white"/>
<path d="M12.3176 36.6568L12.2344 36.5773C11.9087 36.2327 11.7166 35.6977 11.7166 35.0049V35.1679V10.4197C11.7166 10.4175 11.7166 10.4158 11.7166 10.414C11.7166 10.4162 11.7166 10.418 11.7166 10.4202V10.5837C11.7166 9.83356 11.9406 9.2684 12.3162 8.92957L26.1806 22.7937L12.3176 36.6568ZM11.7166 10.4127C11.7166 10.3511 11.7182 10.2912 11.7213 10.2322C11.7182 10.2908 11.7166 10.3511 11.7166 10.4127ZM11.7213 10.2295C11.7213 10.2288 11.7213 10.2278 11.7217 10.227C11.7213 10.2278 11.7213 10.2288 11.7213 10.2295ZM11.7217 10.2217C11.7217 10.2213 11.7217 10.2208 11.7217 10.2204C11.7217 10.2208 11.7217 10.2213 11.7217 10.2217Z" fill="url(#paint0_linear_11_62)"/>
<path d="M30.8022 27.5805L30.9077 27.5207L36.383 24.4097C36.905 24.1129 37.2528 23.7531 37.4264 23.3725C37.2533 23.7531 36.9053 24.1133 36.383 24.4101L30.9077 27.5211L30.8022 27.5805ZM30.8036 27.4166L26.1815 22.7936L30.8032 18.1715L36.383 21.3415C37.0915 21.7442 37.4893 22.263 37.5558 22.7933C37.5558 22.7936 37.5558 22.7946 37.5558 22.7953C37.4893 23.3243 37.0915 23.8437 36.383 24.2461L30.8036 27.4166Z" fill="url(#paint1_linear_11_62)"/>
<path d="M13.3055 37.1847C12.9182 37.1847 12.5802 37.0588 12.3167 36.821L12.3172 36.8206C12.5807 37.0584 12.919 37.1847 13.3064 37.1847C13.34 37.1847 13.3741 37.1838 13.4086 37.1821C13.3736 37.1838 13.339 37.1847 13.3055 37.1847ZM13.3059 37.0208C12.9187 37.0212 12.5807 36.8949 12.3172 36.6571V36.6567L26.1802 22.7936L30.8023 27.4164L14.5595 36.6453C14.1101 36.9001 13.6843 37.0208 13.3059 37.0208ZM12.3133 36.818C12.2887 36.7958 12.2647 36.7721 12.2411 36.7476L12.3133 36.818Z" fill="url(#paint2_linear_11_62)"/>
<path d="M26.1801 22.7937L12.3157 8.92955C12.5792 8.69221 12.9168 8.56632 13.3036 8.56632C13.683 8.56632 14.1092 8.6874 14.5595 8.94265L30.8018 18.1715L26.1801 22.7937ZM30.9063 18.0671L14.5595 8.77927C14.1092 8.52391 13.683 8.40283 13.3036 8.40283C13.3018 8.40283 13.3006 8.40283 13.2987 8.40283C13.301 8.40283 13.3026 8.40283 13.3054 8.40283C13.684 8.40283 14.1096 8.52346 14.5595 8.77882L30.9063 18.0671Z" fill="url(#paint3_linear_11_62)"/>
<path d="M13.4085 37.1822C13.7603 37.162 14.1498 37.0409 14.5594 36.8089L30.8008 27.5804L14.5594 36.8089C14.1501 37.0414 13.7603 37.162 13.4085 37.1822ZM12.3165 36.821L12.313 36.818C12.3142 36.819 12.3156 36.8202 12.3165 36.821ZM12.2409 36.7476L12.2338 36.7407V36.7403C12.2365 36.7429 12.2386 36.7454 12.2409 36.7476Z" fill="black"/>
<path d="M30.8021 27.5805L30.9076 27.5207L30.8021 27.5805Z" fill="url(#paint4_linear_11_62)"/>
<path d="M13.3062 37.1847C12.9189 37.1847 12.5805 37.0583 12.3169 36.8205L12.3165 36.821C12.3156 36.8201 12.3142 36.8189 12.313 36.8179L12.2409 36.7476C12.2386 36.7454 12.2365 36.7428 12.2338 36.7402L12.3169 36.6571C12.5805 36.8949 12.9184 37.0212 13.3057 37.0208C13.6842 37.0208 14.11 36.9001 14.5594 36.6453L30.8021 27.4164L30.9062 27.5205L30.8008 27.5803L14.5594 36.8088C14.1498 37.0409 13.7603 37.1619 13.4085 37.1821C13.3739 37.1838 13.3397 37.1847 13.3062 37.1847Z" fill="url(#paint5_linear_11_62)"/>
<path d="M12.2344 36.7406C11.9087 36.3961 11.7166 35.8611 11.7166 35.1683V35.1678C11.7166 35.8611 11.9087 36.3956 12.2344 36.7402V36.7406Z" fill="black"/>
<path d="M12.2344 36.7403C11.9087 36.3957 11.7166 35.8612 11.7166 35.1679V35.0049C11.7166 35.6977 11.9087 36.2327 12.2344 36.5773L12.3176 36.6568L12.2344 36.7403Z" fill="url(#paint6_linear_11_62)"/>
<path d="M12.2338 36.7403L12.3169 36.6568V36.6571L12.2338 36.7403Z" fill="url(#paint7_linear_11_62)"/>
<path d="M37.4263 23.3723C37.5122 23.1834 37.5556 22.9893 37.5556 22.7951C37.5556 22.7949 37.5556 22.7944 37.5556 22.7944C37.5556 22.9888 37.5122 23.1829 37.4263 23.3723Z" fill="black"/>
<path d="M30.9062 27.5204L30.8021 27.4163L36.3815 24.2459C37.0901 23.8434 37.4879 23.3241 37.5543 22.7951C37.5543 22.9893 37.511 23.1833 37.4249 23.3722C37.2514 23.7529 36.9035 24.1127 36.3815 24.4094L30.9062 27.5204Z" fill="url(#paint8_linear_11_62)"/>
<path d="M37.5546 22.7937V22.7932C37.5541 22.2078 37.1629 21.6226 36.3816 21.1784L30.9065 18.0675H30.906L30.9065 18.0671L36.3816 21.178C37.1637 21.6221 37.5554 22.2083 37.5546 22.7937Z" fill="#404040"/>
<path d="M37.5547 22.7932C37.4883 22.263 37.0905 21.7441 36.3819 21.3414L30.8021 18.1715L30.9062 18.0675H30.9067L36.3819 21.1784C37.1631 21.6226 37.5543 22.2078 37.5547 22.7932Z" fill="url(#paint9_linear_11_62)"/>
<path d="M11.7166 10.4141C11.7166 10.4137 11.7166 10.4132 11.7166 10.4127C11.7166 10.4132 11.7166 10.4137 11.7166 10.4141ZM11.7213 10.2323C11.7213 10.2314 11.7213 10.2305 11.7213 10.2296C11.7213 10.2305 11.7213 10.2314 11.7213 10.2323ZM11.7217 10.227C11.7217 10.2252 11.7217 10.2235 11.7217 10.2218C11.7217 10.2235 11.7217 10.2252 11.7217 10.227ZM11.7217 10.2205C11.7865 9.07087 12.4116 8.40684 13.2958 8.40292C12.9124 8.40516 12.5785 8.53105 12.3171 8.7666V8.76616L12.3139 8.76929C12.2864 8.79413 12.2602 8.82043 12.2344 8.84751C11.9406 9.15826 11.7553 9.62377 11.7217 10.2205Z" fill="#404040"/>
<path d="M11.7166 10.5835V10.42C11.7166 10.4178 11.7166 10.416 11.7166 10.4139C11.7166 10.4134 11.7166 10.4129 11.7166 10.4126C11.7166 10.3508 11.7182 10.2906 11.7213 10.232C11.7213 10.2311 11.7213 10.2303 11.7213 10.2293C11.7213 10.2286 11.7213 10.2276 11.7217 10.2268C11.7217 10.2249 11.7217 10.2233 11.7217 10.2215C11.7217 10.221 11.7217 10.2207 11.7217 10.2202C11.7553 9.62352 11.9406 9.158 12.2344 8.84725L12.3162 8.92939C11.9406 9.26823 11.7166 9.83328 11.7166 10.5835ZM12.3139 8.76903L12.3171 8.7659C12.3162 8.76724 12.3149 8.76814 12.3139 8.76903Z" fill="url(#paint10_linear_11_62)"/>
<path d="M30.8016 18.1716L14.5594 8.94271C14.1091 8.68746 13.6829 8.56638 13.3035 8.56638C12.9166 8.56638 12.5792 8.69227 12.3156 8.92961L12.2338 8.84748C12.2597 8.8204 12.2858 8.7941 12.3134 8.76926C12.3142 8.76836 12.3156 8.76747 12.3165 8.76657C12.5779 8.53102 12.9118 8.40513 13.2952 8.40289C13.2961 8.40289 13.2973 8.40289 13.2987 8.40289C13.3005 8.40289 13.3017 8.40289 13.3035 8.40289C13.6829 8.40289 14.1091 8.52397 14.5594 8.77933L30.9062 18.0672L30.9057 18.0675L30.8016 18.1716Z" fill="url(#paint11_linear_11_62)"/>
<path d="M144.165 0.878601H8.01742C4.15482 0.878601 1.02356 4.00986 1.02356 7.87247V37.713C1.02356 41.5756 4.15482 44.7068 8.01742 44.7068H144.165C148.027 44.7068 151.159 41.5756 151.159 37.713V7.87247C151.159 4.00986 148.027 0.878601 144.165 0.878601Z" stroke="#A6A6A6" stroke-width="0.932515"/>
</g>
<defs>
<linearGradient id="paint0_linear_11_62" x1="24.9513" y1="10.1587" x2="6.17132" y2="28.9386" gradientUnits="userSpaceOnUse">
<stop stop-color="#00A0FF"/>
<stop offset="0.00657445" stop-color="#00A1FF"/>
<stop offset="0.2601" stop-color="#00BEFF"/>
<stop offset="0.5122" stop-color="#00D2FF"/>
<stop offset="0.7604" stop-color="#00DFFF"/>
<stop offset="1" stop-color="#00E3FF"/>
</linearGradient>
<linearGradient id="paint1_linear_11_62" x1="38.4191" y1="22.7944" x2="11.3422" y2="22.7944" gradientUnits="userSpaceOnUse">
<stop stop-color="#FFE000"/>
<stop offset="0.4087" stop-color="#FFBD00"/>
<stop offset="0.7754" stop-color="#FFA500"/>
<stop offset="1" stop-color="#FF9C00"/>
</linearGradient>
<linearGradient id="paint2_linear_11_62" x1="28.3384" y1="25.362" x2="2.8714" y2="50.829" gradientUnits="userSpaceOnUse">
<stop stop-color="#FF3A44"/>
<stop offset="1" stop-color="#C31162"/>
</linearGradient>
<linearGradient id="paint3_linear_11_62" x1="8.7222" y1="0.609539" x2="20.0943" y2="11.9816" gradientUnits="userSpaceOnUse">
<stop stop-color="#32A071"/>
<stop offset="0.0685" stop-color="#2DA771"/>
<stop offset="0.4762" stop-color="#15CF74"/>
<stop offset="0.8009" stop-color="#06E775"/>
<stop offset="1" stop-color="#00F076"/>
</linearGradient>
<linearGradient id="paint4_linear_11_62" x1="38.4188" y1="22.7943" x2="11.3427" y2="22.7943" gradientUnits="userSpaceOnUse">
<stop stop-color="#CCB300"/>
<stop offset="0.4087" stop-color="#CC9700"/>
<stop offset="0.7754" stop-color="#CC8400"/>
<stop offset="1" stop-color="#CC7D00"/>
</linearGradient>
<linearGradient id="paint5_linear_11_62" x1="28.3381" y1="25.362" x2="2.8712" y2="50.829" gradientUnits="userSpaceOnUse">
<stop stop-color="#CC2E36"/>
<stop offset="1" stop-color="#9C0E4E"/>
</linearGradient>
<linearGradient id="paint6_linear_11_62" x1="24.9513" y1="10.1586" x2="6.17131" y2="28.9386" gradientUnits="userSpaceOnUse">
<stop stop-color="#008DE0"/>
<stop offset="0.00657445" stop-color="#008DE0"/>
<stop offset="0.2601" stop-color="#00A7E0"/>
<stop offset="0.5122" stop-color="#00B8E0"/>
<stop offset="0.7604" stop-color="#00C4E0"/>
<stop offset="1" stop-color="#00C7E0"/>
</linearGradient>
<linearGradient id="paint7_linear_11_62" x1="28.3384" y1="25.362" x2="2.87126" y2="50.8294" gradientUnits="userSpaceOnUse">
<stop stop-color="#E0333C"/>
<stop offset="1" stop-color="#AB0F56"/>
</linearGradient>
<linearGradient id="paint8_linear_11_62" x1="38.4176" y1="22.7941" x2="11.3408" y2="22.7941" gradientUnits="userSpaceOnUse">
<stop stop-color="#E0C500"/>
<stop offset="0.4087" stop-color="#E0A600"/>
<stop offset="0.7754" stop-color="#E09100"/>
<stop offset="1" stop-color="#E08900"/>
</linearGradient>
<linearGradient id="paint9_linear_11_62" x1="38.4181" y1="22.7943" x2="11.3412" y2="22.7943" gradientUnits="userSpaceOnUse">
<stop stop-color="#FFE840"/>
<stop offset="0.4087" stop-color="#FFCE40"/>
<stop offset="0.7754" stop-color="#FFBC40"/>
<stop offset="1" stop-color="#FFB540"/>
</linearGradient>
<linearGradient id="paint10_linear_11_62" x1="24.9512" y1="10.1585" x2="6.17132" y2="28.9384" gradientUnits="userSpaceOnUse">
<stop stop-color="#40B8FF"/>
<stop offset="0.00657445" stop-color="#40B9FF"/>
<stop offset="0.2601" stop-color="#40CEFF"/>
<stop offset="0.5122" stop-color="#40DDFF"/>
<stop offset="0.7604" stop-color="#40E7FF"/>
<stop offset="1" stop-color="#40EAFF"/>
</linearGradient>
<linearGradient id="paint11_linear_11_62" x1="8.7221" y1="0.609605" x2="20.0941" y2="11.9816" gradientUnits="userSpaceOnUse">
<stop stop-color="#65B895"/>
<stop offset="0.0685" stop-color="#62BD95"/>
<stop offset="0.4762" stop-color="#50DB97"/>
<stop offset="0.8009" stop-color="#44ED98"/>
<stop offset="1" stop-color="#40F498"/>
</linearGradient>
<clipPath id="clip0_11_62">
<rect width="152" height="45" fill="white" transform="translate(0 0.292725)"/>
</clipPath>
</defs>
</svg>
