<svg width="45" height="46" viewBox="0 0 45 46" fill="none" xmlns="http://www.w3.org/2000/svg">
<g clip-path="url(#clip0_11_98)">
<path fill-rule="evenodd" clip-rule="evenodd" d="M9.75 0.292725H35.25C40.6348 0.292725 45 4.65795 45 10.0427V35.5427C45 40.9275 40.6348 45.2927 35.25 45.2927H9.75C4.36522 45.2927 0 40.9275 0 35.5427V10.0427C0 4.65795 4.36522 0.292725 9.75 0.292725ZM26.3186 5.91772H31.2577L40.3125 11.5427L31.2577 39.6677H26.3186L30.4344 13.9534L21.3796 39.6677H16.4406L20.968 15.5606L11.5015 39.6677H6.5625L11.5015 17.1677L6.5625 5.91772H11.5015L20.968 14.757L16.4406 5.91772H21.3796L30.4344 13.1499L26.3186 5.91772Z" fill="#FFD02F"/>
</g>
<defs>
<clipPath id="clip0_11_98">
<rect width="45" height="45" fill="white" transform="translate(0 0.292725)"/>
</clipPath>
</defs>
</svg>
