<svg width="193" height="62" viewBox="0 0 193 62" fill="none" xmlns="http://www.w3.org/2000/svg">
<path d="M13.3361 41.0076C19.838 41.0076 22.3742 37.0823 22.3742 30.3665C22.3742 23.6522 19.4082 18.9705 13.5266 18.9705H6.93477V41.0076H13.3361ZM0 13.1075H14.3877C23.5203 13.1075 29.4019 20.3899 29.4019 30.3665C29.4019 35.8514 27.5364 40.6762 23.9501 43.6551C21.4155 45.7345 18.1157 46.9174 13.8132 46.9174H0V13.1075ZM49.2079 34.8131C49.2079 30.0832 46.9613 26.8677 42.9925 26.8677C38.9749 26.8677 36.774 30.0832 36.774 34.8131C36.774 39.5415 38.9749 42.7088 42.9925 42.7088C46.9613 42.7088 49.2079 39.5415 49.2079 34.8131ZM30.1762 34.8131C30.1762 27.5774 35.3887 21.9977 42.9925 21.9977C50.5948 21.9977 55.8073 27.5774 55.8073 34.8131C55.8073 42.0458 50.5948 47.627 42.9925 47.627C35.3871 47.627 30.1746 42.0473 30.1746 34.8131M56.8818 34.8131C56.8818 27.5774 61.6645 21.9977 69.1236 21.9977C75.4853 21.9977 79.4053 25.6397 80.2665 30.8879H73.9063C73.4765 28.7602 71.803 27.151 69.4117 27.151C65.49 27.151 63.4828 30.1315 63.4828 34.8131C63.4828 39.3998 65.3468 42.4737 69.3156 42.4737C71.9462 42.4737 73.8117 41.1026 74.2416 38.3602H80.5058C80.0759 43.5135 76.0096 47.627 69.459 47.627C61.7133 47.627 56.8818 42.0473 56.8818 34.8131ZM97.4388 46.9188V44.0815H97.2955C95.622 46.304 93.7093 47.5803 90.2662 47.5803C84.8145 47.5803 81.754 44.1298 81.754 38.8318V22.6592H88.2086V37.7439C88.2086 40.5812 89.5012 42.1423 92.2735 42.1423C95.3339 42.1423 97.1995 39.873 97.1995 36.6575V22.6592H103.703V46.9188H97.4388ZM135.388 46.9188H141.889V22.6592H135.388V46.9188ZM135.388 19.2688H141.889V13.2567H135.388V19.2688ZM161.755 33.7237C161.755 30.1782 159.842 27.1525 155.921 27.1525C152.621 27.1525 150.422 29.705 150.422 33.7719C150.422 37.8855 152.621 40.298 155.97 40.298C160.082 40.298 161.755 37.3189 161.755 33.7252M144.588 47.627H151.041C151.568 49.1399 152.953 50.3227 155.966 50.3227C159.649 50.3227 161.419 48.5733 161.419 45.2628V42.6139H161.275C159.839 44.2217 157.976 45.4512 154.866 45.4512C149.416 45.4512 144.06 41.196 144.06 33.8668C144.06 26.6311 148.459 21.9977 154.676 21.9977C157.736 21.9977 159.983 23.179 161.466 25.2133H161.562V22.6592H167.825V45.073C167.825 48.4784 166.725 50.7943 164.909 52.4504C162.851 54.3414 159.696 55.1927 156.063 55.1927C149.368 55.1927 145.255 52.3554 144.586 47.627M176.977 25.9697H177.12C178.794 23.3689 181.042 21.9977 184.389 21.9977C189.458 21.9977 192.852 25.7798 192.852 31.0762V46.9174H186.349V32.0225C186.349 29.4218 184.818 27.5774 182.093 27.5774C179.224 27.5774 177.12 29.8466 177.12 33.1571V46.9174H170.616V22.6592H176.977V25.9697ZM120.568 26.5363C115.498 25.4513 113.107 24.6467 113.107 21.9028C113.107 19.4919 115.545 17.9308 119.276 17.9308C122.68 17.9308 125.282 19.51 125.815 22.6592H132.484C131.806 16.094 126.879 12.4927 119.323 12.4927C111.722 12.4927 106.221 15.9448 106.221 22.6124C106.221 29.6583 111.815 31.2661 117.937 32.6373C123.149 33.8202 126.401 34.4816 126.401 37.7906C126.401 40.9127 123.293 42.1423 119.755 42.1423C114.878 42.1423 112.534 40.5344 112.055 36.4676H105.265C105.504 43.6083 110.764 47.6738 120.041 47.6738C127.74 47.6738 133.335 43.8449 133.335 36.9875C133.335 29.705 127.596 28.0506 120.568 26.5363Z" fill="#050038"/>
</svg>
