<svg width="88" height="62" viewBox="0 0 88 62" fill="none" xmlns="http://www.w3.org/2000/svg">
<g clip-path="url(#clip0_11_116)">
<path d="M4.20257 17.0915V20.7908H0V25.6146H4.20257V45.006C4.20257 46.4774 5.72503 47.6561 7.6394 47.6561C9.55377 47.6561 11.1124 46.4863 11.1124 45.0151V25.6235H16.6987V20.7998H11.1124V17.0915C11.1124 12.6295 14.6095 11.8065 19.3969 12.8707V8.04693C12.656 6.54251 4.20257 7.24196 4.20257 17.0915ZM25.7279 25.6235H25.5832V20.7998H19.9909V45.0211C19.9909 46.4924 21.4982 47.6712 23.4277 47.6712C25.3571 47.6712 26.8916 46.4924 26.8916 45.0211V32.8261C26.8916 27.0737 30.639 25.6115 35.1762 25.6115V20.1847C31.0731 20.1636 27.2293 21.5173 25.7279 25.6235ZM74.0244 20.1968C67.3617 20.1968 61.9654 23.4981 61.9654 29.986C61.9654 33.4411 63.4999 35.9917 65.9449 37.6227C65.764 37.7402 65.5891 37.8608 65.4172 37.9875C62.3874 40.2275 62.0618 44.0895 64.8384 46.197C63.4788 47.4028 61.5523 49.5615 61.5523 52.5704C61.5523 57.3458 66.0142 60.4301 74.0213 60.4301C82.0286 60.4301 88.1425 56.6766 88.1425 50.8971C88.1425 45.1176 84.1268 42.8475 76.801 42.8475H72.0105C68.6551 42.8475 68.9415 40.5291 70.0479 39.5311C70.1052 39.4799 70.1655 39.4316 70.2319 39.3803C71.4787 39.6424 72.7503 39.7698 74.0244 39.7602C80.6901 39.7602 86.0834 36.4439 86.0834 29.977C86.0985 28.6379 85.8347 27.3104 85.3086 26.0788C86.329 25.7997 87.3802 25.6488 88.4379 25.6296V20.8058C85.4745 20.8058 83.5631 21.0048 81.5372 21.9906C79.4841 20.7817 76.8704 20.1817 74.0244 20.1817V20.1968ZM70.3614 47.6803H76.795C79.4359 47.6803 81.2357 48.5003 81.2357 50.8971C81.2357 54.117 78.4742 55.6003 74.0002 55.6003C67.1326 55.5852 67.5426 49.9414 70.3614 47.6651V47.6803ZM74.0244 34.9365C71.1755 34.9365 68.8601 33.83 68.8601 29.9831C68.8601 26.1361 71.1755 25.0297 74.0244 25.0297C76.8734 25.0297 79.1917 26.1331 79.1917 29.9831C79.1917 33.833 76.8793 34.9365 74.0244 34.9365ZM47.7146 20.1817C40.2259 20.1817 35.6555 24.8156 35.6555 33.9235C35.6555 43.0314 40.232 47.6651 47.7146 47.6651C55.1972 47.6651 59.7737 43.0314 59.7737 33.9235C59.7737 24.8156 55.2063 20.1817 47.7146 20.1817ZM47.7146 42.8323C44.8626 42.8323 42.5503 41.6746 42.5503 33.9235C42.5503 26.1723 44.8777 25.0206 47.7146 25.0206C50.5514 25.0206 52.8789 26.1752 52.8789 33.9235C52.8789 41.6717 50.5666 42.8323 47.7146 42.8323Z" fill="#050038"/>
</g>
<defs>
<clipPath id="clip0_11_116">
<rect width="88" height="61" fill="white" transform="translate(0 0.292725)"/>
</clipPath>
</defs>
</svg>
