<svg width="183" height="62" viewBox="0 0 183 62" fill="none" xmlns="http://www.w3.org/2000/svg">
<g clip-path="url(#clip0_11_105)">
<path d="M0.431196 19.6711C1.27465 18.0393 3.39616 17.2308 5.14323 17.8041C6.23599 18.1459 7.12241 19.0147 7.53984 20.0629C9.87245 25.5157 12.2155 30.9646 14.5472 36.4173C14.6112 36.3011 14.6724 36.1831 14.7258 36.0613C16.5178 31.8618 18.3241 27.6669 20.1247 23.4702C20.9873 21.4974 22.3818 19.672 24.3324 18.653C25.4166 18.0807 26.6296 17.7672 27.8503 17.6681C31.0092 17.3272 34.2216 18.8155 36.1942 21.2368C38.0272 19.6833 40.1429 18.3621 42.5224 17.8296C43.809 17.5359 45.1453 17.5925 46.4464 17.7502C48.073 17.9589 49.6806 18.5133 50.9884 19.5106C51.6475 20.0006 52.2148 20.6013 52.7277 21.2378C54.9868 19.079 58.0378 17.653 61.2081 17.6209C63.2284 17.5784 65.2706 18.1091 66.9709 19.1989C68.9281 20.4304 70.3761 22.4248 70.9024 24.662C71.1604 25.6941 71.1719 26.7641 71.169 27.8208C71.169 32.3537 71.1681 36.8866 71.1699 41.4195C71.1575 42.023 71.1347 42.635 70.9665 43.2195C70.6723 44.3386 69.9206 45.3773 68.8268 45.8419C67.287 46.5068 65.2572 46.2575 64.1377 44.9468C63.236 43.9391 63.0086 42.5348 63.0478 41.2317C63.0498 37.0141 63.0478 32.7967 63.0487 28.5791C63.0478 27.4847 62.6409 26.3666 61.8251 25.6082C61.0792 24.9028 60.0389 24.5544 59.0159 24.5467C57.8792 24.5185 56.7033 24.8745 55.8666 25.6564C55.0623 26.3977 54.6306 27.4922 54.6382 28.5725C54.6382 32.9176 54.6391 37.2616 54.6373 41.6065C54.6315 42.7323 54.3689 43.9033 53.6419 44.7966C53.0678 45.5285 52.1938 46.0072 51.2702 46.1385C50.2394 46.2867 49.1247 46.1376 48.2583 45.5378C47.4779 45.01 46.9612 44.1658 46.7186 43.2733C46.4702 42.4262 46.5113 41.5357 46.5103 40.664C46.5103 36.6345 46.5094 32.6058 46.5113 28.5763C46.5017 27.5744 46.1684 26.5535 45.4816 25.8037C44.7117 24.9481 43.533 24.5345 42.3915 24.5458C41.2424 24.5373 40.0551 24.9208 39.2413 25.7452C38.4618 26.5053 38.0845 27.6008 38.0864 28.6707C38.0864 33.0469 38.0854 37.424 38.0864 41.8002C38.0787 42.905 37.7597 44.044 37.0252 44.8966C36.4864 45.5332 35.7156 45.9628 34.8922 46.1111C33.7097 46.3274 32.3896 46.1281 31.4562 45.3358C30.4294 44.4736 29.9882 43.1024 29.9843 41.803C29.9805 36.4787 29.9843 31.1554 29.9824 25.832C29.9929 25.4156 29.7875 24.9954 29.4245 24.7753C28.8696 24.407 27.9955 24.5846 27.73 25.2201C25.2045 30.6595 22.6751 36.0972 20.1534 41.5386C19.6041 42.6708 19.0242 43.8172 18.1531 44.7466C17.5188 45.4246 16.6735 45.9119 15.7517 46.081C14.3036 46.3547 12.6865 46.1583 11.5088 45.2234C10.265 44.2347 9.54769 42.7785 8.89241 41.377C6.03825 35.2312 3.17455 29.09 0.325168 22.9432C-0.13142 21.9092 -0.117093 20.6693 0.431196 19.6711Z" fill="#050038"/>
<path d="M166.767 18.5579C168.645 18.0527 170.637 17.9979 172.549 18.3473C174.67 18.7335 176.683 19.7167 178.255 21.1794C181.206 23.8878 182.595 27.9618 182.532 31.8827C182.481 32.795 181.644 33.5968 180.714 33.5788C174.232 33.5807 167.749 33.5779 161.267 33.5797C161.415 35.4364 162.026 37.2741 163.097 38.8124C164.156 40.3376 165.712 41.5199 167.481 42.1234C169.307 42.7664 171.316 42.8023 173.199 42.3925C174.992 41.9986 176.652 41.0997 178.029 39.906C178.345 39.6397 178.636 39.3186 179.041 39.1807C179.741 38.9163 180.585 39.1996 181.017 39.7973C181.489 40.4055 181.448 41.3433 180.912 41.9014C179.59 43.2273 178.042 44.3586 176.3 45.0839C174.529 45.829 172.595 46.1321 170.677 46.1415C168.659 46.1482 166.629 45.7346 164.808 44.8677C161.648 43.4058 159.189 40.6067 158.066 37.3525C157.248 35.0643 157.049 32.5882 157.315 30.1848C157.699 26.855 159.208 23.6073 161.727 21.3314C163.154 20.0301 164.893 19.0641 166.767 18.5579ZM166.774 22.1663C165.135 22.8811 163.783 24.1569 162.868 25.6698C161.946 27.16 161.442 28.8759 161.249 30.604C161.716 30.6362 162.185 30.6135 162.654 30.6201C167.941 30.622 173.228 30.6154 178.514 30.6229C178.523 30.1697 178.429 29.7239 178.358 29.2782C178.028 27.4811 177.334 25.7161 176.154 24.2939C175.105 23.0124 173.616 22.0917 171.991 21.7224C170.263 21.3362 168.4 21.4448 166.774 22.1663Z" fill="#050038"/>
<path d="M74.387 18.2666C75.0556 18.0834 75.8389 18.2251 76.3374 18.7208C76.6278 18.9909 76.8341 19.3384 76.9679 19.7077C79.2795 26.3163 81.5844 32.9277 83.8864 39.5401C84.2169 38.7534 84.4568 37.9309 84.7577 37.132C86.7874 31.3251 88.822 25.5212 90.8623 19.7181C91.0887 19.0447 91.5998 18.4083 92.3295 18.2506C93.045 18.1033 93.8693 18.1826 94.4367 18.6765C94.7959 18.9777 95.0184 19.4008 95.1722 19.8343C97.3463 26.068 99.5117 32.3054 101.682 38.5409C101.81 38.8725 101.893 39.2219 102.054 39.541C104.395 32.8777 106.745 26.2171 109.096 19.5584C109.275 19.0835 109.591 18.6368 110.057 18.4026C110.753 18.0513 111.651 18.1419 112.263 18.6217C112.832 19.0486 113.113 19.8154 112.936 20.5019C112.806 21.0071 112.608 21.4916 112.433 21.9817C109.902 28.9492 107.351 35.9109 104.816 42.8774C104.615 43.4072 104.443 43.9484 104.219 44.4696C103.916 45.1307 103.342 45.7162 102.606 45.8758C101.898 46.0127 101.094 45.906 100.549 45.4046C99.953 44.8899 99.7725 44.1004 99.5165 43.395C97.3634 37.2472 95.199 31.1032 93.0411 24.9574C93.0144 24.9045 92.96 24.7997 92.9332 24.7468C92.0793 27.0538 91.2884 29.3854 90.4554 31.701C89.0351 35.7088 87.6166 39.7176 86.2009 43.7283C86.0051 44.2836 85.8293 44.8794 85.388 45.3026C84.8044 45.9249 83.8368 46.0618 83.043 45.8163C82.2692 45.5708 81.7363 44.8728 81.4774 44.1382C78.7341 36.5644 75.9735 28.9973 73.2321 21.4226C73.0802 20.9864 72.8854 20.5462 72.9092 20.076C72.9045 19.2318 73.576 18.4724 74.387 18.2666Z" fill="#050038"/>
<path d="M122.909 18.2844C125.084 18.1342 127.3 18.121 129.432 18.6281C131.04 19.0068 132.594 19.7075 133.837 20.7992C135.321 22.0618 136.267 23.8552 136.689 25.7287C137.165 27.6827 137.012 29.7026 137.038 31.6924C137.038 35.7862 137.036 39.8799 137.039 43.9746C137.053 44.5837 136.778 45.2013 136.286 45.5744C135.699 46.0258 134.857 46.0664 134.189 45.7736C133.561 45.4979 133.147 44.8369 133.14 44.1626C133.131 43.2891 133.155 42.4155 133.13 41.542C132.143 42.7319 130.99 43.8028 129.627 44.5611C127.772 45.6216 125.622 46.1363 123.485 46.142C121.324 46.1939 119.134 45.7113 117.243 44.6631C115.708 43.8075 114.394 42.5052 113.696 40.8904C112.973 39.2595 112.906 37.402 113.265 35.6738C113.643 33.8889 114.719 32.2722 116.208 31.1994C118.088 29.8291 120.421 29.2181 122.716 28.999C126.215 28.7176 129.764 29.0888 133.135 30.0568C133.195 28.2974 133.04 26.4351 132.073 24.9072C131.292 23.6238 129.986 22.7144 128.557 22.262C127.386 21.8843 126.147 21.7379 124.919 21.7615C123.246 21.7361 121.553 21.9098 119.968 22.4603C119.455 22.6266 118.97 22.8636 118.465 23.0468C117.786 23.2904 116.991 23.0496 116.53 22.5132C115.832 21.7511 116.003 20.3403 116.962 19.8662C118.821 18.9786 120.849 18.4356 122.909 18.2844ZM121.692 32.2986C120.344 32.6632 119.016 33.3318 118.161 34.4565C117.289 35.5709 117.029 37.0638 117.251 38.4341C117.457 39.7071 118.231 40.8582 119.298 41.5911C120.968 42.7706 123.11 43.0927 125.118 42.9151C127.186 42.7347 129.244 42.0019 130.821 40.643C132.203 39.4692 133.118 37.7438 133.183 35.9325C133.194 34.9702 133.186 34.0079 133.185 33.0466C131.479 32.5386 129.723 32.2033 127.952 32.0229C125.869 31.8331 123.731 31.7556 121.692 32.2986Z" fill="#050038"/>
<path d="M141.985 20.1701C141.969 19.1312 142.875 18.167 143.932 18.1454C145.025 18.0717 146.046 18.9925 146.07 20.0765C146.087 21.6262 146.07 23.1778 146.076 24.7285C146.414 24.1552 146.693 23.548 147.088 23.0078C148.757 20.612 151.37 18.8196 154.283 18.3011C155.031 18.1945 155.864 18.0547 156.55 18.4607C157.756 19.1322 157.846 21.0709 156.734 21.8718C156.255 22.2599 155.622 22.293 155.039 22.3826C152.962 22.7424 150.961 23.6802 149.471 25.1742C148.232 26.3754 147.358 27.9128 146.823 29.538C146.248 31.2955 146.041 33.1558 146.076 34.9984C146.076 37.9258 146.075 40.8533 146.076 43.7808C146.083 44.339 145.876 44.9065 145.471 45.3013C144.978 45.815 144.188 46.0076 143.503 45.8168C142.831 45.6573 142.274 45.1209 142.079 44.4692C141.948 44.0953 141.99 43.6958 141.986 43.3087C141.986 35.5961 141.987 27.8835 141.985 20.1701Z" fill="#050038"/>
</g>
<defs>
<clipPath id="clip0_11_105">
<rect width="183" height="61" fill="white" transform="translate(0 0.292725)"/>
</clipPath>
</defs>
</svg>
